<svg width="2500" height="2500" version="1.1" xmlns="http://www.w3.org/2000/svg" ><desc>Binarized and Traced by BDFM https://bitmap.designfamilymarket.com/</desc><path fill="rgb(0,0,0)" d="M 1427 122 L 1440 122 L 1440 149 L 1454 149 L 1454 163 L 1440 163 L 1440 149 L 1427 149 Z M 1712 122 L 1726 122 L 1726 149 L 1712 149 L 1712 177 L 1726 177 L 1726 190 L 1712 190 L 1712 217 L 1726 217 L 1726 231 L 1712 231 L 1712 217 L 1698 217 L 1698 245 L 1726 245 L 1726 258 L 1698 258 L 1698 272 L 1712 272 L 1712 285 L 1726 285 L 1726 299 L 1698 299 L 1698 326 L 1712 326 L 1712 313 L 1726 313 L 1726 326 L 1712 326 L 1712 340 L 1726 340 L 1726 353 L 1712 353 L 1712 367 L 1726 367 L 1726 380 L 1712 380 L 1712 367 L 1698 367 L 1698 394 L 1726 394 L 1726 408 L 1712 408 L 1712 421 L 1726 421 L 1726 435 L 1712 435 L 1712 448 L 1726 448 L 1726 462 L 1712 462 L 1712 448 L 1698 448 L 1698 476 L 1726 476 L 1726 489 L 1698 489 L 1698 516 L 1712 516 L 1712 503 L 1726 503 L 1726 516 L 1712 516 L 1712 543 L 1726 543 L 1726 557 L 1712 557 L 1712 571 L 1726 571 L 1726 584 L 1712 584 L 1712 571 L 1698 571 L 1698 598 L 1712 598 L 1712 611 L 1726 611 L 1726 625 L 1712 625 L 1712 611 L 1698 611 L 1698 598 L 1685 598 L 1685 584 L 1671 584 L 1671 571 L 1658 571 L 1658 598 L 1644 598 L 1644 571 L 1630 571 L 1630 598 L 1603 598 L 1603 584 L 1590 584 L 1590 598 L 1576 598 L 1576 584 L 1563 584 L 1563 598 L 1535 598 L 1535 571 L 1522 571 L 1522 598 L 1508 598 L 1508 584 L 1495 584 L 1495 598 L 1481 598 L 1481 584 L 1467 584 L 1467 598 L 1454 598 L 1454 584 L 1440 584 L 1440 611 L 1454 611 L 1454 625 L 1467 625 L 1467 639 L 1454 639 L 1454 652 L 1467 652 L 1467 666 L 1454 666 L 1454 652 L 1440 652 L 1440 679 L 1467 679 L 1467 693 L 1481 693 L 1481 707 L 1495 707 L 1495 693 L 1522 693 L 1522 679 L 1535 679 L 1535 693 L 1563 693 L 1563 666 L 1671 666 L 1671 679 L 1685 679 L 1685 652 L 1712 652 L 1712 639 L 1726 639 L 1726 652 L 1712 652 L 1712 666 L 1726 666 L 1726 679 L 1712 679 L 1712 693 L 1726 693 L 1726 707 L 1712 707 L 1712 693 L 1698 693 L 1698 720 L 1726 720 L 1726 734 L 1698 734 L 1698 761 L 1712 761 L 1712 747 L 1726 747 L 1726 761 L 1712 761 L 1712 774 L 1726 774 L 1726 788 L 1712 788 L 1712 815 L 1726 815 L 1726 829 L 1712 829 L 1712 842 L 1726 842 L 1726 856 L 1712 856 L 1712 842 L 1698 842 L 1698 870 L 1726 870 L 1726 883 L 1712 883 L 1712 897 L 1726 897 L 1726 910 L 1712 910 L 1712 924 L 1726 924 L 1726 938 L 1712 938 L 1712 924 L 1698 924 L 1698 951 L 1726 951 L 1726 965 L 1712 965 L 1712 978 L 1726 978 L 1726 992 L 1712 992 L 1712 1005 L 1726 1005 L 1726 1019 L 1712 1019 L 1712 1005 L 1698 1005 L 1698 1033 L 1726 1033 L 1726 1046 L 1712 1046 L 1712 1060 L 1726 1060 L 1726 1087 L 1712 1087 L 1712 1101 L 1726 1101 L 1726 1114 L 1712 1114 L 1712 1101 L 1698 1101 L 1698 1128 L 1726 1128 L 1726 1141 L 1712 1141 L 1712 1155 L 1726 1155 L 1726 1168 L 1712 1168 L 1712 1182 L 1726 1182 L 1726 1196 L 1712 1196 L 1712 1209 L 1726 1209 L 1726 1223 L 1712 1223 L 1712 1209 L 1698 1209 L 1698 1236 L 1726 1236 L 1726 1250 L 1698 1250 L 1698 1264 L 1726 1264 L 1726 1277 L 1712 1277 L 1712 1291 L 1726 1291 L 1726 1304 L 1712 1304 L 1712 1291 L 1698 1291 L 1698 1318 L 1726 1318 L 1726 1332 L 1698 1332 L 1698 1345 L 1726 1345 L 1726 1359 L 1712 1359 L 1712 1372 L 1726 1372 L 1726 1386 L 1712 1386 L 1712 1372 L 1698 1372 L 1698 1399 L 1726 1399 L 1726 1413 L 1698 1413 L 1698 1427 L 1726 1427 L 1726 1440 L 1712 1440 L 1712 1454 L 1726 1454 L 1726 1467 L 1712 1467 L 1712 1495 L 1726 1495 L 1726 1508 L 1712 1508 L 1712 1495 L 1698 1495 L 1698 1522 L 1712 1522 L 1712 1535 L 1726 1535 L 1726 1549 L 1712 1549 L 1712 1535 L 1698 1535 L 1698 1522 L 1671 1522 L 1671 1508 L 1658 1508 L 1658 1522 L 1630 1522 L 1630 1495 L 1617 1495 L 1617 1522 L 1590 1522 L 1590 1508 L 1576 1508 L 1576 1522 L 1563 1522 L 1563 1508 L 1549 1508 L 1549 1522 L 1522 1522 L 1522 1508 L 1508 1508 L 1508 1522 L 1495 1522 L 1495 1508 L 1481 1508 L 1481 1522 L 1467 1522 L 1467 1508 L 1454 1508 L 1454 1522 L 1440 1522 L 1440 1535 L 1427 1535 L 1427 1495 L 1413 1495 L 1413 1481 L 1440 1481 L 1440 1508 L 1454 1508 L 1454 1495 L 1467 1495 L 1467 1467 L 1454 1467 L 1454 1454 L 1467 1454 L 1467 1427 L 1454 1427 L 1454 1413 L 1467 1413 L 1467 1386 L 1454 1386 L 1454 1372 L 1467 1372 L 1467 1264 L 1481 1264 L 1481 1141 L 1535 1141 L 1535 1155 L 1549 1155 L 1549 1128 L 1576 1128 L 1576 1101 L 1658 1101 L 1658 1114 L 1671 1114 L 1671 1087 L 1685 1087 L 1685 1101 L 1698 1101 L 1698 1087 L 1712 1087 L 1712 1060 L 1698 1060 L 1698 1033 L 1685 1033 L 1685 1060 L 1671 1060 L 1671 1046 L 1658 1046 L 1658 1060 L 1644 1060 L 1644 1046 L 1630 1046 L 1630 1060 L 1617 1060 L 1617 1033 L 1603 1033 L 1603 1060 L 1590 1060 L 1590 1046 L 1576 1046 L 1576 1060 L 1563 1060 L 1563 1046 L 1549 1046 L 1549 1060 L 1535 1060 L 1535 1033 L 1522 1033 L 1522 1060 L 1508 1060 L 1508 1046 L 1495 1046 L 1495 1033 L 1481 1033 L 1481 1060 L 1467 1060 L 1467 1046 L 1454 1046 L 1454 1060 L 1440 1060 L 1440 1073 L 1427 1073 L 1427 802 L 1413 802 L 1413 788 L 1427 788 L 1427 802 L 1440 802 L 1440 1046 L 1454 1046 L 1454 1005 L 1467 1005 L 1467 992 L 1454 992 L 1454 965 L 1467 965 L 1467 951 L 1454 951 L 1454 924 L 1467 924 L 1467 910 L 1454 910 L 1454 883 L 1467 883 L 1467 870 L 1454 870 L 1454 842 L 1467 842 L 1467 829 L 1454 829 L 1454 815 L 1467 815 L 1467 829 L 1481 829 L 1481 802 L 1467 802 L 1467 788 L 1481 788 L 1481 774 L 1467 774 L 1467 761 L 1481 761 L 1481 734 L 1467 734 L 1467 720 L 1481 720 L 1481 707 L 1467 707 L 1467 693 L 1454 693 L 1454 707 L 1440 707 L 1440 720 L 1427 720 L 1427 693 L 1413 693 L 1413 707 L 1399 707 L 1399 720 L 1386 720 L 1386 707 L 1372 707 L 1372 720 L 1359 720 L 1359 707 L 1345 707 L 1345 734 L 1318 734 L 1318 720 L 1304 720 L 1304 734 L 1277 734 L 1277 747 L 1250 747 L 1250 734 L 1236 734 L 1236 761 L 1209 761 L 1209 774 L 1223 774 L 1223 788 L 1209 788 L 1209 802 L 1196 802 L 1196 815 L 1209 815 L 1209 829 L 1196 829 L 1196 815 L 1182 815 L 1182 842 L 1196 842 L 1196 856 L 1182 856 L 1182 842 L 1168 842 L 1168 870 L 1196 870 L 1196 897 L 1209 897 L 1209 910 L 1196 910 L 1196 924 L 1182 924 L 1182 938 L 1168 938 L 1168 951 L 1155 951 L 1155 938 L 1141 938 L 1141 965 L 1128 965 L 1128 978 L 1141 978 L 1141 1005 L 1128 1005 L 1128 1019 L 1141 1019 L 1141 1046 L 1128 1046 L 1128 1060 L 1141 1060 L 1141 1073 L 1128 1073 L 1128 1101 L 1114 1101 L 1114 1114 L 1128 1114 L 1128 1141 L 1114 1141 L 1114 1168 L 1128 1168 L 1128 1155 L 1141 1155 L 1141 1168 L 1128 1168 L 1128 1196 L 1141 1196 L 1141 1223 L 1155 1223 L 1155 1236 L 1141 1236 L 1141 1264 L 1155 1264 L 1155 1250 L 1168 1250 L 1168 1264 L 1155 1264 L 1155 1277 L 1168 1277 L 1168 1291 L 1155 1291 L 1155 1318 L 1168 1318 L 1168 1332 L 1182 1332 L 1182 1345 L 1155 1345 L 1155 1372 L 1168 1372 L 1168 1359 L 1182 1359 L 1182 1372 L 1168 1372 L 1168 1399 L 1182 1399 L 1182 1413 L 1196 1413 L 1196 1427 L 1168 1427 L 1168 1440 L 1155 1440 L 1155 1427 L 1141 1427 L 1141 1454 L 1155 1454 L 1155 1467 L 1141 1467 L 1141 1481 L 1155 1481 L 1155 1495 L 1168 1495 L 1168 1508 L 1141 1508 L 1141 1535 L 1155 1535 L 1155 1563 L 1141 1563 L 1141 1576 L 1155 1576 L 1155 1590 L 1141 1590 L 1141 1576 L 1128 1576 L 1128 1603 L 1155 1603 L 1155 1617 L 1141 1617 L 1141 1630 L 1128 1630 L 1128 1658 L 1141 1658 L 1141 1671 L 1128 1671 L 1128 1685 L 1114 1685 L 1114 1712 L 1128 1712 L 1128 1726 L 1114 1726 L 1114 1712 L 1101 1712 L 1101 1739 L 1114 1739 L 1114 1753 L 1101 1753 L 1101 1766 L 1114 1766 L 1114 1780 L 1101 1780 L 1101 1766 L 1087 1766 L 1087 1793 L 1101 1793 L 1101 1821 L 1073 1821 L 1073 1834 L 1101 1834 L 1101 1848 L 1087 1848 L 1087 1861 L 1073 1861 L 1073 1875 L 1087 1875 L 1087 1889 L 1060 1889 L 1060 1916 L 1073 1916 L 1073 1929 L 1060 1929 L 1060 1957 L 1073 1957 L 1073 1970 L 1060 1970 L 1060 1984 L 1046 1984 L 1046 2011 L 1060 2011 L 1060 2024 L 1046 2024 L 1046 2038 L 1060 2038 L 1060 2052 L 1046 2052 L 1046 2038 L 1033 2038 L 1033 2065 L 1060 2065 L 1060 2079 L 1046 2079 L 1046 2092 L 1033 2092 L 1033 2120 L 1046 2120 L 1046 2133 L 1033 2133 L 1033 2147 L 1046 2147 L 1046 2174 L 1033 2174 L 1033 2201 L 1046 2201 L 1046 2215 L 1033 2215 L 1033 2228 L 1060 2228 L 1060 2242 L 1087 2242 L 1087 2255 L 1114 2255 L 1114 2269 L 1128 2269 L 1128 2283 L 1141 2283 L 1141 2296 L 1182 2296 L 1182 2310 L 1209 2310 L 1209 2323 L 1168 2323 L 1168 2310 L 1155 2310 L 1155 2323 L 1141 2323 L 1141 2310 L 1128 2310 L 1128 2323 L 1101 2323 L 1101 2310 L 1087 2310 L 1087 2323 L 1073 2323 L 1073 2310 L 1046 2310 L 1046 2296 L 1033 2296 L 1033 2310 L 1019 2310 L 1019 2337 L 1005 2337 L 1005 2323 L 992 2323 L 992 2351 L 978 2351 L 978 2337 L 965 2337 L 965 2351 L 951 2351 L 951 2364 L 924 2364 L 924 2351 L 910 2351 L 910 2337 L 897 2337 L 897 2364 L 883 2364 L 883 2351 L 870 2351 L 870 2337 L 856 2337 L 856 2323 L 842 2323 L 842 2337 L 829 2337 L 829 2310 L 815 2310 L 815 2242 L 829 2242 L 829 2201 L 802 2201 L 802 2147 L 815 2147 L 815 2133 L 802 2133 L 802 2106 L 815 2106 L 815 2024 L 829 2024 L 829 2011 L 815 2011 L 815 1984 L 829 1984 L 829 1902 L 842 1902 L 842 1848 L 856 1848 L 856 1440 L 829 1440 L 829 1413 L 842 1413 L 842 1386 L 856 1386 L 856 1345 L 883 1345 L 883 1332 L 870 1332 L 870 1304 L 883 1304 L 883 1264 L 897 1264 L 897 1155 L 883 1155 L 883 1101 L 870 1101 L 870 1087 L 856 1087 L 856 1060 L 842 1060 L 842 1046 L 829 1046 L 829 1033 L 842 1033 L 842 1019 L 829 1019 L 829 978 L 815 978 L 815 883 L 829 883 L 829 870 L 815 870 L 815 842 L 829 842 L 829 815 L 856 815 L 856 802 L 883 802 L 883 788 L 897 788 L 897 761 L 910 761 L 910 720 L 897 720 L 897 707 L 883 707 L 883 693 L 870 693 L 870 666 L 856 666 L 856 652 L 870 652 L 870 530 L 883 530 L 883 516 L 965 516 L 965 530 L 992 530 L 992 543 L 1005 543 L 1005 557 L 1019 557 L 1019 584 L 1005 584 L 1005 598 L 1019 598 L 1019 611 L 1005 611 L 1005 625 L 1019 625 L 1019 639 L 1033 639 L 1033 652 L 1019 652 L 1019 666 L 1005 666 L 1005 679 L 1019 679 L 1019 693 L 992 693 L 992 707 L 1019 707 L 1019 720 L 1005 720 L 1005 734 L 1019 734 L 1019 747 L 1005 747 L 1005 774 L 1019 774 L 1019 788 L 1005 788 L 1005 815 L 1019 815 L 1019 829 L 1033 829 L 1033 842 L 1046 842 L 1046 856 L 1060 856 L 1060 870 L 1073 870 L 1073 856 L 1087 856 L 1087 870 L 1101 870 L 1101 856 L 1114 856 L 1114 842 L 1128 842 L 1128 829 L 1155 829 L 1155 802 L 1168 802 L 1168 666 L 1196 666 L 1196 652 L 1223 652 L 1223 639 L 1209 639 L 1209 584 L 1196 584 L 1196 571 L 1209 571 L 1209 557 L 1196 557 L 1196 489 L 1182 489 L 1182 435 L 1168 435 L 1168 421 L 1182 421 L 1182 408 L 1196 408 L 1196 394 L 1223 394 L 1223 408 L 1236 408 L 1236 380 L 1264 380 L 1264 394 L 1277 394 L 1277 367 L 1318 367 L 1318 353 L 1332 353 L 1332 367 L 1345 367 L 1345 340 L 1372 340 L 1372 353 L 1386 353 L 1386 367 L 1399 367 L 1399 394 L 1386 394 L 1386 408 L 1399 408 L 1399 421 L 1413 421 L 1413 435 L 1440 435 L 1440 462 L 1427 462 L 1427 489 L 1440 489 L 1440 503 L 1413 503 L 1413 516 L 1440 516 L 1440 530 L 1427 530 L 1427 543 L 1440 543 L 1440 557 L 1427 557 L 1427 584 L 1440 584 L 1440 571 L 1454 571 L 1454 557 L 1467 557 L 1467 543 L 1454 543 L 1454 530 L 1467 530 L 1467 516 L 1454 516 L 1454 503 L 1467 503 L 1467 476 L 1454 476 L 1454 462 L 1467 462 L 1467 408 L 1454 408 L 1454 394 L 1467 394 L 1467 367 L 1454 367 L 1454 353 L 1467 353 L 1467 326 L 1481 326 L 1481 245 L 1535 245 L 1535 258 L 1549 258 L 1549 231 L 1576 231 L 1576 204 L 1603 204 L 1603 217 L 1617 217 L 1617 204 L 1630 204 L 1630 217 L 1644 217 L 1644 204 L 1658 204 L 1658 217 L 1671 217 L 1671 204 L 1685 204 L 1685 217 L 1698 217 L 1698 190 L 1712 190 L 1712 177 L 1698 177 L 1698 149 L 1712 149 Z M 1590 217 L 1590 231 L 1603 231 L 1603 217 Z M 1644 217 L 1644 231 L 1658 231 L 1658 217 Z M 1671 217 L 1671 231 L 1685 231 L 1685 217 Z M 1576 231 L 1576 245 L 1590 245 L 1590 231 Z M 1603 231 L 1603 258 L 1617 258 L 1617 245 L 1630 245 L 1630 231 Z M 1658 231 L 1658 258 L 1671 258 L 1671 231 Z M 1563 245 L 1563 258 L 1576 258 L 1576 245 Z M 1630 245 L 1630 258 L 1644 258 L 1644 245 Z M 1685 245 L 1685 258 L 1698 258 L 1698 245 Z M 1495 258 L 1495 285 L 1522 285 L 1522 272 L 1508 272 L 1508 258 Z M 1522 258 L 1522 272 L 1535 272 L 1535 258 Z M 1549 258 L 1549 272 L 1563 272 L 1563 258 Z M 1576 258 L 1576 272 L 1590 272 L 1590 258 Z M 1617 258 L 1617 272 L 1630 272 L 1630 258 Z M 1644 258 L 1644 272 L 1658 272 L 1658 258 Z M 1671 258 L 1671 285 L 1685 285 L 1685 258 Z M 1535 272 L 1535 285 L 1549 285 L 1549 272 Z M 1563 272 L 1563 299 L 1576 299 L 1576 272 Z M 1590 272 L 1590 299 L 1603 299 L 1603 313 L 1617 313 L 1617 285 L 1603 285 L 1603 272 Z M 1630 272 L 1630 299 L 1644 299 L 1644 272 Z M 1522 285 L 1522 313 L 1535 313 L 1535 285 Z M 1658 285 L 1658 299 L 1671 299 L 1671 285 Z M 1685 285 L 1685 299 L 1698 299 L 1698 285 Z M 1495 299 L 1495 313 L 1508 313 L 1508 299 Z M 1549 299 L 1549 313 L 1563 313 L 1563 299 Z M 1644 299 L 1644 313 L 1658 313 L 1658 299 Z M 1671 299 L 1671 313 L 1685 313 L 1685 299 Z M 1508 313 L 1508 326 L 1522 326 L 1522 313 Z M 1535 313 L 1535 326 L 1549 326 L 1549 313 Z M 1563 313 L 1563 340 L 1576 340 L 1576 326 L 1590 326 L 1590 313 Z M 1617 313 L 1617 340 L 1630 340 L 1630 353 L 1644 353 L 1644 326 L 1630 326 L 1630 313 Z M 1658 313 L 1658 340 L 1671 340 L 1671 313 Z M 1481 326 L 1481 353 L 1508 353 L 1508 340 L 1495 340 L 1495 326 Z M 1522 326 L 1522 353 L 1535 353 L 1535 326 Z M 1590 326 L 1590 353 L 1603 353 L 1603 326 Z M 1685 326 L 1685 340 L 1698 340 L 1698 326 Z M 1549 340 L 1549 353 L 1563 353 L 1563 340 Z M 1671 340 L 1671 353 L 1685 353 L 1685 340 Z M 1698 340 L 1698 353 L 1712 353 L 1712 340 Z M 1359 353 L 1359 367 L 1372 367 L 1372 353 Z M 1467 353 L 1467 367 L 1481 367 L 1481 353 Z M 1508 353 L 1508 367 L 1522 367 L 1522 353 Z M 1535 353 L 1535 367 L 1549 367 L 1549 353 Z M 1563 353 L 1563 367 L 1576 367 L 1576 353 Z M 1603 353 L 1603 380 L 1630 380 L 1630 367 L 1617 367 L 1617 353 Z M 1644 353 L 1644 380 L 1671 380 L 1671 367 L 1658 367 L 1658 353 Z M 1685 353 L 1685 367 L 1698 367 L 1698 353 Z M 1318 367 L 1318 380 L 1332 380 L 1332 367 Z M 1345 367 L 1345 380 L 1359 380 L 1359 367 Z M 1372 367 L 1372 394 L 1386 394 L 1386 367 Z M 1481 367 L 1481 394 L 1508 394 L 1508 380 L 1495 380 L 1495 367 Z M 1522 367 L 1522 380 L 1535 380 L 1535 367 Z M 1549 367 L 1549 380 L 1563 380 L 1563 367 Z M 1576 367 L 1576 380 L 1590 380 L 1590 367 Z M 1291 380 L 1291 394 L 1304 394 L 1304 380 Z M 1332 380 L 1332 408 L 1345 408 L 1345 380 Z M 1535 380 L 1535 394 L 1549 394 L 1549 380 Z M 1563 380 L 1563 394 L 1576 394 L 1576 380 Z M 1590 380 L 1590 408 L 1603 408 L 1603 380 Z M 1630 380 L 1630 394 L 1644 394 L 1644 380 Z M 1671 380 L 1671 394 L 1685 394 L 1685 380 Z M 1250 394 L 1250 408 L 1264 408 L 1264 394 Z M 1277 394 L 1277 408 L 1291 408 L 1291 394 Z M 1304 394 L 1304 408 L 1318 408 L 1318 394 Z M 1359 394 L 1359 408 L 1372 408 L 1372 394 Z M 1467 394 L 1467 408 L 1481 408 L 1481 394 Z M 1508 394 L 1508 421 L 1535 421 L 1535 408 L 1522 408 L 1522 394 Z M 1549 394 L 1549 421 L 1563 421 L 1563 394 Z M 1617 394 L 1617 408 L 1630 408 L 1630 394 Z M 1644 394 L 1644 408 L 1658 408 L 1658 394 Z M 1685 394 L 1685 421 L 1698 421 L 1698 394 Z M 1196 408 L 1196 421 L 1209 421 L 1209 408 Z M 1236 408 L 1236 421 L 1250 421 L 1250 408 Z M 1264 408 L 1264 421 L 1277 421 L 1277 408 Z M 1291 408 L 1291 435 L 1304 435 L 1304 408 Z M 1318 408 L 1318 421 L 1332 421 L 1332 408 Z M 1345 408 L 1345 421 L 1359 421 L 1359 408 Z M 1372 408 L 1372 435 L 1386 435 L 1386 408 Z M 1481 408 L 1481 421 L 1495 421 L 1495 408 Z M 1576 408 L 1576 421 L 1590 421 L 1590 408 Z M 1603 408 L 1603 421 L 1617 421 L 1617 408 Z M 1630 408 L 1630 435 L 1644 435 L 1644 408 Z M 1658 408 L 1658 421 L 1671 421 L 1671 408 Z M 1182 421 L 1182 435 L 1196 435 L 1196 421 Z M 1209 421 L 1209 435 L 1223 435 L 1223 421 Z M 1250 421 L 1250 448 L 1264 448 L 1264 421 Z M 1332 421 L 1332 448 L 1345 448 L 1345 421 Z M 1495 421 L 1495 435 L 1508 435 L 1508 421 Z M 1535 421 L 1535 435 L 1549 435 L 1549 421 Z M 1563 421 L 1563 435 L 1576 435 L 1576 421 Z M 1590 421 L 1590 448 L 1603 448 L 1603 421 Z M 1671 421 L 1671 435 L 1685 435 L 1685 421 Z M 1698 421 L 1698 435 L 1712 435 L 1712 421 Z M 1196 435 L 1196 448 L 1209 448 L 1209 435 Z M 1223 435 L 1223 448 L 1236 448 L 1236 435 Z M 1277 435 L 1277 448 L 1291 448 L 1291 435 Z M 1304 435 L 1304 448 L 1318 448 L 1318 435 Z M 1359 435 L 1359 448 L 1372 448 L 1372 435 Z M 1386 435 L 1386 448 L 1399 448 L 1399 435 Z M 1481 435 L 1481 448 L 1495 448 L 1495 435 Z M 1508 435 L 1508 448 L 1522 448 L 1522 435 Z M 1549 435 L 1549 462 L 1563 462 L 1563 435 Z M 1617 435 L 1617 448 L 1630 448 L 1630 435 Z M 1644 435 L 1644 448 L 1658 448 L 1658 435 Z M 1685 435 L 1685 448 L 1698 448 L 1698 435 Z M 1209 448 L 1209 462 L 1223 462 L 1223 448 Z M 1236 448 L 1236 476 L 1250 476 L 1250 448 Z M 1264 448 L 1264 462 L 1277 462 L 1277 448 Z M 1291 448 L 1291 462 L 1304 462 L 1304 448 Z M 1318 448 L 1318 476 L 1332 476 L 1332 448 Z M 1345 448 L 1345 462 L 1359 462 L 1359 448 Z M 1372 448 L 1372 462 L 1386 462 L 1386 448 Z M 1399 448 L 1399 476 L 1413 476 L 1413 462 L 1427 462 L 1427 448 Z M 1495 448 L 1495 462 L 1508 462 L 1508 448 Z M 1522 448 L 1522 462 L 1535 462 L 1535 448 Z M 1576 448 L 1576 462 L 1590 462 L 1590 448 Z M 1603 448 L 1603 462 L 1617 462 L 1617 448 Z M 1630 448 L 1630 476 L 1644 476 L 1644 448 Z M 1658 448 L 1658 476 L 1685 476 L 1685 462 L 1671 462 L 1671 448 Z M 1196 462 L 1196 489 L 1209 489 L 1209 462 Z M 1277 462 L 1277 489 L 1291 489 L 1291 462 Z M 1359 462 L 1359 489 L 1372 489 L 1372 462 Z M 1467 462 L 1467 476 L 1481 476 L 1481 462 Z M 1508 462 L 1508 476 L 1522 476 L 1522 462 Z M 1535 462 L 1535 476 L 1549 476 L 1549 462 Z M 1563 462 L 1563 489 L 1576 489 L 1576 462 Z M 1590 462 L 1590 476 L 1603 476 L 1603 462 Z M 1223 476 L 1223 489 L 1236 489 L 1236 476 Z M 1250 476 L 1250 489 L 1264 489 L 1264 476 Z M 1304 476 L 1304 489 L 1318 489 L 1318 476 Z M 1332 476 L 1332 489 L 1345 489 L 1345 476 Z M 1386 476 L 1386 489 L 1399 489 L 1399 476 Z M 1481 476 L 1481 503 L 1508 503 L 1508 489 L 1495 489 L 1495 476 Z M 1522 476 L 1522 503 L 1535 503 L 1535 476 Z M 1603 476 L 1603 503 L 1630 503 L 1630 489 L 1617 489 L 1617 476 Z M 1644 476 L 1644 503 L 1658 503 L 1658 476 Z M 1685 476 L 1685 489 L 1698 489 L 1698 476 Z M 1209 489 L 1209 503 L 1223 503 L 1223 489 Z M 1236 489 L 1236 503 L 1250 503 L 1250 489 Z M 1264 489 L 1264 516 L 1277 516 L 1277 489 Z M 1291 489 L 1291 503 L 1304 503 L 1304 489 Z M 1318 489 L 1318 503 L 1332 503 L 1332 489 Z M 1345 489 L 1345 516 L 1359 516 L 1359 489 Z M 1372 489 L 1372 503 L 1386 503 L 1386 489 Z M 1399 489 L 1399 503 L 1413 503 L 1413 489 Z M 1549 489 L 1549 503 L 1563 503 L 1563 489 Z M 1576 489 L 1576 503 L 1590 503 L 1590 489 Z M 1671 489 L 1671 503 L 1685 503 L 1685 489 Z M 1223 503 L 1223 516 L 1236 516 L 1236 503 Z M 1304 503 L 1304 530 L 1318 530 L 1318 503 Z M 1386 503 L 1386 516 L 1399 516 L 1399 503 Z M 1467 503 L 1467 516 L 1481 516 L 1481 503 Z M 1508 503 L 1508 516 L 1522 516 L 1522 503 Z M 1535 503 L 1535 516 L 1549 516 L 1549 503 Z M 1563 503 L 1563 530 L 1576 530 L 1576 503 Z M 1590 503 L 1590 516 L 1603 516 L 1603 503 Z M 1630 503 L 1630 516 L 1644 516 L 1644 503 Z M 1658 503 L 1658 516 L 1671 516 L 1671 503 Z M 1209 516 L 1209 530 L 1223 530 L 1223 516 Z M 1236 516 L 1236 530 L 1250 530 L 1250 516 Z M 1277 516 L 1277 543 L 1291 543 L 1291 516 Z M 1332 516 L 1332 530 L 1345 530 L 1345 516 Z M 1359 516 L 1359 530 L 1372 530 L 1372 516 Z M 1399 516 L 1399 543 L 1413 543 L 1413 516 Z M 1481 516 L 1481 530 L 1495 530 L 1495 516 Z M 1522 516 L 1522 543 L 1535 543 L 1535 516 Z M 1603 516 L 1603 543 L 1630 543 L 1630 530 L 1617 530 L 1617 516 Z M 1644 516 L 1644 530 L 1658 530 L 1658 516 Z M 1671 516 L 1671 530 L 1685 530 L 1685 516 Z M 883 530 L 883 543 L 897 543 L 897 530 Z M 910 530 L 910 543 L 924 543 L 924 530 Z M 938 530 L 938 543 L 951 543 L 951 530 Z M 1223 530 L 1223 543 L 1236 543 L 1236 530 Z M 1250 530 L 1250 543 L 1264 543 L 1264 530 Z M 1318 530 L 1318 543 L 1332 543 L 1332 530 Z M 1345 530 L 1345 543 L 1359 543 L 1359 530 Z M 1372 530 L 1372 543 L 1386 543 L 1386 530 Z M 1467 530 L 1467 543 L 1481 543 L 1481 530 Z M 1495 530 L 1495 543 L 1508 543 L 1508 530 Z M 1549 530 L 1549 543 L 1563 543 L 1563 530 Z M 1576 530 L 1576 543 L 1590 543 L 1590 530 Z M 1658 530 L 1658 543 L 1671 543 L 1671 530 Z M 1685 530 L 1685 543 L 1698 543 L 1698 530 Z M 897 543 L 897 557 L 910 557 L 910 543 Z M 924 543 L 924 571 L 938 571 L 938 543 Z M 951 543 L 951 571 L 965 571 L 965 584 L 978 584 L 978 557 L 965 557 L 965 543 Z M 1209 543 L 1209 557 L 1223 557 L 1223 543 Z M 1236 543 L 1236 557 L 1250 557 L 1250 543 Z M 1264 543 L 1264 571 L 1277 571 L 1277 543 Z M 1291 543 L 1291 571 L 1318 571 L 1318 557 L 1304 557 L 1304 543 Z M 1332 543 L 1332 557 L 1345 557 L 1345 543 Z M 1359 543 L 1359 557 L 1372 557 L 1372 543 Z M 1386 543 L 1386 571 L 1399 571 L 1399 543 Z M 1413 543 L 1413 557 L 1427 557 L 1427 543 Z M 1481 543 L 1481 557 L 1495 557 L 1495 543 Z M 1508 543 L 1508 571 L 1522 571 L 1522 543 Z M 1535 543 L 1535 557 L 1549 557 L 1549 543 Z M 1563 543 L 1563 557 L 1576 557 L 1576 543 Z M 1590 543 L 1590 571 L 1603 571 L 1603 543 Z M 1630 543 L 1630 557 L 1644 557 L 1644 543 Z M 1671 543 L 1671 557 L 1685 557 L 1685 543 Z M 1698 543 L 1698 557 L 1712 557 L 1712 543 Z M 883 557 L 883 584 L 897 584 L 897 557 Z M 992 557 L 992 584 L 1005 584 L 1005 557 Z M 1223 557 L 1223 571 L 1236 571 L 1236 557 Z M 1345 557 L 1345 584 L 1359 584 L 1359 557 Z M 1467 557 L 1467 571 L 1481 571 L 1481 557 Z M 1549 557 L 1549 584 L 1563 584 L 1563 557 Z M 1617 557 L 1617 571 L 1630 571 L 1630 557 Z M 1644 557 L 1644 571 L 1658 571 L 1658 557 Z M 1685 557 L 1685 571 L 1698 571 L 1698 557 Z M 910 571 L 910 584 L 924 584 L 924 571 Z M 1209 571 L 1209 584 L 1223 584 L 1223 571 Z M 1236 571 L 1236 584 L 1250 584 L 1250 571 Z M 1277 571 L 1277 598 L 1291 598 L 1291 571 Z M 1318 571 L 1318 584 L 1332 584 L 1332 571 Z M 1372 571 L 1372 584 L 1386 584 L 1386 571 Z M 1399 571 L 1399 584 L 1413 584 L 1413 571 Z M 1454 571 L 1454 584 L 1467 584 L 1467 571 Z M 1481 571 L 1481 584 L 1495 584 L 1495 571 Z M 1576 571 L 1576 584 L 1590 584 L 1590 571 Z M 1603 571 L 1603 584 L 1617 584 L 1617 571 Z M 897 584 L 897 598 L 910 598 L 910 584 Z M 924 584 L 924 611 L 938 611 L 938 598 L 951 598 L 951 584 Z M 978 584 L 978 598 L 992 598 L 992 584 Z M 1223 584 L 1223 598 L 1236 598 L 1236 584 Z M 1250 584 L 1250 598 L 1264 598 L 1264 584 Z M 1304 584 L 1304 598 L 1318 598 L 1318 584 Z M 1332 584 L 1332 598 L 1345 598 L 1345 584 Z M 1359 584 L 1359 611 L 1372 611 L 1372 584 Z M 1386 584 L 1386 598 L 1399 598 L 1399 584 Z M 1413 584 L 1413 598 L 1427 598 L 1427 584 Z M 883 598 L 883 625 L 897 625 L 897 598 Z M 951 598 L 951 625 L 965 625 L 965 639 L 978 639 L 978 611 L 965 611 L 965 598 Z M 992 598 L 992 611 L 1005 611 L 1005 598 Z M 1236 598 L 1236 611 L 1250 611 L 1250 598 Z M 1264 598 L 1264 625 L 1277 625 L 1277 598 Z M 1291 598 L 1291 611 L 1304 611 L 1304 598 Z M 1318 598 L 1318 611 L 1332 611 L 1332 598 Z M 1399 598 L 1399 625 L 1413 625 L 1413 598 Z M 910 611 L 910 625 L 924 625 L 924 611 Z M 1223 611 L 1223 639 L 1236 639 L 1236 611 Z M 1304 611 L 1304 625 L 1318 625 L 1318 611 Z M 1332 611 L 1332 625 L 1345 625 L 1345 611 Z M 1372 611 L 1372 639 L 1386 639 L 1386 611 Z M 1427 611 L 1427 625 L 1440 625 L 1440 611 Z M 897 625 L 897 639 L 910 639 L 910 625 Z M 924 625 L 924 639 L 938 639 L 938 625 Z M 992 625 L 992 639 L 1005 639 L 1005 625 Z M 1250 625 L 1250 639 L 1264 639 L 1264 625 Z M 1277 625 L 1277 639 L 1291 639 L 1291 625 Z M 1318 625 L 1318 639 L 1332 639 L 1332 625 Z M 1345 625 L 1345 639 L 1359 639 L 1359 625 Z M 1413 625 L 1413 639 L 1427 639 L 1427 625 Z M 1440 625 L 1440 639 L 1454 639 L 1454 625 Z M 883 639 L 883 652 L 897 652 L 897 639 Z M 910 639 L 910 652 L 924 652 L 924 639 Z M 938 639 L 938 652 L 951 652 L 951 639 Z M 978 639 L 978 652 L 992 652 L 992 639 Z M 1005 639 L 1005 652 L 1019 652 L 1019 639 Z M 1236 639 L 1236 652 L 1250 652 L 1250 639 Z M 1264 639 L 1264 666 L 1277 666 L 1277 639 Z M 1291 639 L 1291 666 L 1304 666 L 1304 679 L 1318 679 L 1318 652 L 1304 652 L 1304 639 Z M 1332 639 L 1332 652 L 1345 652 L 1345 639 Z M 1359 639 L 1359 652 L 1372 652 L 1372 639 Z M 1386 639 L 1386 652 L 1399 652 L 1399 639 Z M 1427 639 L 1427 652 L 1440 652 L 1440 639 Z M 870 652 L 870 666 L 883 666 L 883 652 Z M 897 652 L 897 679 L 910 679 L 910 652 Z M 924 652 L 924 666 L 938 666 L 938 652 Z M 951 652 L 951 666 L 965 666 L 965 652 Z M 992 652 L 992 666 L 1005 666 L 1005 652 Z M 1223 652 L 1223 679 L 1236 679 L 1236 652 Z M 1345 652 L 1345 666 L 1359 666 L 1359 652 Z M 1372 652 L 1372 679 L 1386 679 L 1386 652 Z M 1399 652 L 1399 679 L 1427 679 L 1427 666 L 1413 666 L 1413 652 Z M 938 666 L 938 679 L 951 679 L 951 666 Z M 965 666 L 965 679 L 978 679 L 978 666 Z M 1196 666 L 1196 679 L 1209 679 L 1209 666 Z M 1250 666 L 1250 679 L 1264 679 L 1264 666 Z M 1332 666 L 1332 679 L 1345 679 L 1345 666 Z M 1698 666 L 1698 679 L 1712 679 L 1712 666 Z M 883 679 L 883 693 L 897 693 L 897 679 Z M 910 679 L 910 693 L 924 693 L 924 679 Z M 951 679 L 951 693 L 965 693 L 965 679 Z M 978 679 L 978 693 L 992 693 L 992 679 Z M 1182 679 L 1182 693 L 1196 693 L 1196 679 Z M 1209 679 L 1209 693 L 1223 693 L 1223 679 Z M 1236 679 L 1236 707 L 1250 707 L 1250 679 Z M 1264 679 L 1264 693 L 1277 693 L 1277 707 L 1291 707 L 1291 679 Z M 1318 679 L 1318 693 L 1332 693 L 1332 679 Z M 1345 679 L 1345 693 L 1359 693 L 1359 679 Z M 1386 679 L 1386 707 L 1399 707 L 1399 679 Z M 1427 679 L 1427 693 L 1440 693 L 1440 679 Z M 1576 679 L 1576 693 L 1590 693 L 1590 679 Z M 1603 679 L 1603 693 L 1617 693 L 1617 679 Z M 1630 679 L 1630 693 L 1644 693 L 1644 679 Z M 1658 679 L 1658 693 L 1671 693 L 1671 679 Z M 1685 679 L 1685 693 L 1698 693 L 1698 679 Z M 897 693 L 897 707 L 910 707 L 910 693 Z M 924 693 L 924 707 L 938 707 L 938 693 Z M 965 693 L 965 707 L 978 707 L 978 693 Z M 1196 693 L 1196 707 L 1209 707 L 1209 693 Z M 1304 693 L 1304 707 L 1318 707 L 1318 693 Z M 1332 693 L 1332 707 L 1345 707 L 1345 693 Z M 1359 693 L 1359 707 L 1372 707 L 1372 693 Z M 1522 693 L 1522 707 L 1535 707 L 1535 693 Z M 1563 693 L 1563 707 L 1576 707 L 1576 693 Z M 1590 693 L 1590 707 L 1603 707 L 1603 693 Z M 1617 693 L 1617 720 L 1630 720 L 1630 693 Z M 1644 693 L 1644 707 L 1658 707 L 1658 693 Z M 1671 693 L 1671 707 L 1685 707 L 1685 693 Z M 910 707 L 910 720 L 924 720 L 924 707 Z M 938 707 L 938 720 L 951 720 L 951 707 Z M 978 707 L 978 734 L 992 734 L 992 707 Z M 1182 707 L 1182 720 L 1196 720 L 1196 707 Z M 1209 707 L 1209 720 L 1223 720 L 1223 707 Z M 1250 707 L 1250 734 L 1277 734 L 1277 720 L 1264 720 L 1264 707 Z M 1291 707 L 1291 720 L 1304 720 L 1304 707 Z M 1318 707 L 1318 720 L 1332 720 L 1332 707 Z M 1495 707 L 1495 720 L 1508 720 L 1508 707 Z M 1535 707 L 1535 734 L 1563 734 L 1563 720 L 1549 720 L 1549 707 Z M 1576 707 L 1576 734 L 1590 734 L 1590 707 Z M 1658 707 L 1658 734 L 1671 734 L 1671 707 Z M 924 720 L 924 734 L 938 734 L 938 720 Z M 951 720 L 951 734 L 965 734 L 965 720 Z M 1196 720 L 1196 734 L 1209 734 L 1209 720 Z M 1223 720 L 1223 734 L 1236 734 L 1236 720 Z M 1481 720 L 1481 734 L 1495 734 L 1495 720 Z M 1508 720 L 1508 734 L 1522 734 L 1522 720 Z M 1603 720 L 1603 734 L 1617 734 L 1617 720 Z M 1630 720 L 1630 734 L 1644 734 L 1644 720 Z M 1685 720 L 1685 734 L 1698 734 L 1698 720 Z M 938 734 L 938 747 L 951 747 L 951 734 Z M 965 734 L 965 761 L 978 761 L 978 734 Z M 992 734 L 992 747 L 1005 747 L 1005 734 Z M 1182 734 L 1182 747 L 1196 747 L 1196 734 Z M 1209 734 L 1209 747 L 1223 747 L 1223 734 Z M 1495 734 L 1495 747 L 1508 747 L 1508 734 Z M 1522 734 L 1522 747 L 1535 747 L 1535 734 Z M 1563 734 L 1563 747 L 1576 747 L 1576 734 Z M 1590 734 L 1590 747 L 1603 747 L 1603 734 Z M 1617 734 L 1617 761 L 1630 761 L 1630 734 Z M 1644 734 L 1644 747 L 1658 747 L 1658 734 Z M 1671 734 L 1671 747 L 1685 747 L 1685 734 Z M 924 747 L 924 761 L 938 761 L 938 747 Z M 1196 747 L 1196 761 L 1209 761 L 1209 747 Z M 1508 747 L 1508 761 L 1522 761 L 1522 747 Z M 1535 747 L 1535 761 L 1549 761 L 1549 747 Z M 1576 747 L 1576 774 L 1590 774 L 1590 747 Z M 1658 747 L 1658 774 L 1671 774 L 1671 747 Z M 910 761 L 910 774 L 924 774 L 924 761 Z M 938 761 L 938 774 L 951 774 L 951 761 Z M 978 761 L 978 788 L 1005 788 L 1005 774 L 992 774 L 992 761 Z M 1182 761 L 1182 774 L 1196 774 L 1196 761 Z M 1481 761 L 1481 774 L 1495 774 L 1495 761 Z M 1522 761 L 1522 774 L 1535 774 L 1535 761 Z M 1549 761 L 1549 774 L 1563 774 L 1563 761 Z M 1603 761 L 1603 774 L 1617 774 L 1617 761 Z M 1630 761 L 1630 774 L 1644 774 L 1644 761 Z M 1685 761 L 1685 774 L 1698 774 L 1698 761 Z M 924 774 L 924 788 L 938 788 L 938 774 Z M 951 774 L 951 788 L 965 788 L 965 774 Z M 1196 774 L 1196 788 L 1209 788 L 1209 774 Z M 1495 774 L 1495 788 L 1508 788 L 1508 774 Z M 1535 774 L 1535 788 L 1549 788 L 1549 774 Z M 1563 774 L 1563 788 L 1576 788 L 1576 774 Z M 1590 774 L 1590 802 L 1603 802 L 1603 774 Z M 1617 774 L 1617 788 L 1630 788 L 1630 774 Z M 1644 774 L 1644 788 L 1658 788 L 1658 774 Z M 1671 774 L 1671 802 L 1685 802 L 1685 774 Z M 1698 774 L 1698 788 L 1712 788 L 1712 774 Z M 897 788 L 897 802 L 910 802 L 910 788 Z M 938 788 L 938 802 L 951 802 L 951 788 Z M 965 788 L 965 802 L 978 802 L 978 788 Z M 1182 788 L 1182 802 L 1196 802 L 1196 788 Z M 1481 788 L 1481 802 L 1495 802 L 1495 788 Z M 1508 788 L 1508 802 L 1522 802 L 1522 788 Z M 1549 788 L 1549 815 L 1563 815 L 1563 788 Z M 1630 788 L 1630 815 L 1644 815 L 1644 788 Z M 883 802 L 883 815 L 897 815 L 897 802 Z M 910 802 L 910 815 L 924 815 L 924 802 Z M 951 802 L 951 815 L 965 815 L 965 802 Z M 978 802 L 978 815 L 992 815 L 992 802 Z M 1168 802 L 1168 815 L 1182 815 L 1182 802 Z M 1495 802 L 1495 815 L 1508 815 L 1508 802 Z M 1522 802 L 1522 815 L 1535 815 L 1535 802 Z M 1576 802 L 1576 815 L 1590 815 L 1590 802 Z M 1603 802 L 1603 815 L 1617 815 L 1617 802 Z M 1658 802 L 1658 815 L 1671 815 L 1671 802 Z M 1685 802 L 1685 815 L 1698 815 L 1698 802 Z M 856 815 L 856 829 L 870 829 L 870 815 Z M 897 815 L 897 829 L 910 829 L 910 815 Z M 924 815 L 924 829 L 938 829 L 938 815 Z M 965 815 L 965 829 L 978 829 L 978 815 Z M 992 815 L 992 829 L 1005 829 L 1005 815 Z M 1508 815 L 1508 829 L 1522 829 L 1522 815 Z M 1535 815 L 1535 829 L 1549 829 L 1549 815 Z M 1563 815 L 1563 842 L 1576 842 L 1576 815 Z M 1590 815 L 1590 829 L 1603 829 L 1603 815 Z M 1617 815 L 1617 829 L 1630 829 L 1630 815 Z M 1644 815 L 1644 842 L 1658 842 L 1658 815 Z M 1671 815 L 1671 829 L 1685 829 L 1685 815 Z M 1698 815 L 1698 829 L 1712 829 L 1712 815 Z M 842 829 L 842 842 L 856 842 L 856 829 Z M 870 829 L 870 842 L 883 842 L 883 829 Z M 910 829 L 910 842 L 924 842 L 924 829 Z M 938 829 L 938 842 L 951 842 L 951 829 Z M 978 829 L 978 856 L 992 856 L 992 829 Z M 1155 829 L 1155 842 L 1168 842 L 1168 829 Z M 1481 829 L 1481 856 L 1508 856 L 1508 842 L 1495 842 L 1495 829 Z M 1522 829 L 1522 856 L 1535 856 L 1535 829 Z M 1603 829 L 1603 856 L 1617 856 L 1617 829 Z M 1685 829 L 1685 842 L 1698 842 L 1698 829 Z M 829 842 L 829 856 L 842 856 L 842 842 Z M 856 842 L 856 856 L 870 856 L 870 842 Z M 883 842 L 883 856 L 897 856 L 897 842 Z M 924 842 L 924 856 L 938 856 L 938 842 Z M 951 842 L 951 856 L 965 856 L 965 842 Z M 1005 842 L 1005 856 L 1019 856 L 1019 842 Z M 1128 842 L 1128 856 L 1141 856 L 1141 842 Z M 1549 842 L 1549 856 L 1563 856 L 1563 842 Z M 1576 842 L 1576 856 L 1590 856 L 1590 842 Z M 1630 842 L 1630 856 L 1644 856 L 1644 842 Z M 1658 842 L 1658 856 L 1671 856 L 1671 842 Z M 842 856 L 842 870 L 856 870 L 856 856 Z M 870 856 L 870 870 L 883 870 L 883 856 Z M 897 856 L 897 870 L 910 870 L 910 856 Z M 938 856 L 938 870 L 951 870 L 951 856 Z M 965 856 L 965 870 L 978 870 L 978 856 Z M 992 856 L 992 883 L 1005 883 L 1005 856 Z M 1019 856 L 1019 883 L 1033 883 L 1033 856 Z M 1114 856 L 1114 870 L 1128 870 L 1128 856 Z M 1141 856 L 1141 870 L 1155 870 L 1155 856 Z M 1467 856 L 1467 870 L 1481 870 L 1481 856 Z M 1508 856 L 1508 870 L 1522 870 L 1522 856 Z M 1535 856 L 1535 870 L 1549 870 L 1549 856 Z M 1563 856 L 1563 883 L 1576 883 L 1576 856 Z M 1590 856 L 1590 870 L 1603 870 L 1603 856 Z M 1617 856 L 1617 870 L 1630 870 L 1630 856 Z M 1644 856 L 1644 883 L 1658 883 L 1658 856 Z M 1671 856 L 1671 870 L 1685 870 L 1685 856 Z M 856 870 L 856 883 L 870 883 L 870 870 Z M 883 870 L 883 883 L 897 883 L 897 870 Z M 910 870 L 910 883 L 924 883 L 924 870 Z M 951 870 L 951 897 L 965 897 L 965 870 Z M 1046 870 L 1046 883 L 1060 883 L 1060 870 Z M 1073 870 L 1073 883 L 1087 883 L 1087 870 Z M 1101 870 L 1101 897 L 1114 897 L 1114 870 Z M 1128 870 L 1128 883 L 1141 883 L 1141 870 Z M 1155 870 L 1155 883 L 1168 883 L 1168 870 Z M 1481 870 L 1481 897 L 1508 897 L 1508 883 L 1495 883 L 1495 870 Z M 1522 870 L 1522 897 L 1535 897 L 1535 870 Z M 1603 870 L 1603 897 L 1617 897 L 1617 870 Z M 1685 870 L 1685 897 L 1698 897 L 1698 870 Z M 829 883 L 829 897 L 842 897 L 842 883 Z M 870 883 L 870 897 L 883 897 L 883 883 Z M 897 883 L 897 897 L 910 897 L 910 883 Z M 924 883 L 924 897 L 938 897 L 938 883 Z M 978 883 L 978 897 L 992 897 L 992 883 Z M 1005 883 L 1005 897 L 1019 897 L 1019 883 Z M 1033 883 L 1033 910 L 1046 910 L 1046 883 Z M 1060 883 L 1060 897 L 1073 897 L 1073 883 Z M 1141 883 L 1141 897 L 1155 897 L 1155 883 Z M 1168 883 L 1168 897 L 1182 897 L 1182 883 Z M 1549 883 L 1549 897 L 1563 897 L 1563 883 Z M 1576 883 L 1576 897 L 1590 897 L 1590 883 Z M 1630 883 L 1630 897 L 1644 897 L 1644 883 Z M 1658 883 L 1658 897 L 1671 897 L 1671 883 Z M 842 897 L 842 910 L 856 910 L 856 897 Z M 883 897 L 883 910 L 897 910 L 897 897 Z M 910 897 L 910 910 L 924 910 L 924 897 Z M 938 897 L 938 924 L 951 924 L 951 897 Z M 965 897 L 965 910 L 978 910 L 978 897 Z M 992 897 L 992 910 L 1005 910 L 1005 897 Z M 1073 897 L 1073 924 L 1087 924 L 1087 938 L 1101 938 L 1101 910 L 1087 910 L 1087 897 Z M 1114 897 L 1114 924 L 1128 924 L 1128 938 L 1141 938 L 1141 910 L 1128 910 L 1128 897 Z M 1155 897 L 1155 910 L 1168 910 L 1168 897 Z M 1182 897 L 1182 910 L 1196 910 L 1196 897 Z M 1467 897 L 1467 910 L 1481 910 L 1481 897 Z M 1508 897 L 1508 910 L 1522 910 L 1522 897 Z M 1535 897 L 1535 910 L 1549 910 L 1549 897 Z M 1563 897 L 1563 924 L 1576 924 L 1576 897 Z M 1590 897 L 1590 910 L 1603 910 L 1603 897 Z M 1617 897 L 1617 910 L 1630 910 L 1630 897 Z M 1644 897 L 1644 924 L 1658 924 L 1658 897 Z M 1671 897 L 1671 910 L 1685 910 L 1685 897 Z M 1698 897 L 1698 910 L 1712 910 L 1712 897 Z M 829 910 L 829 924 L 842 924 L 842 910 Z M 856 910 L 856 924 L 870 924 L 870 910 Z M 897 910 L 897 938 L 910 938 L 910 910 Z M 978 910 L 978 924 L 992 924 L 992 910 Z M 1005 910 L 1005 924 L 1019 924 L 1019 910 Z M 1046 910 L 1046 938 L 1060 938 L 1060 910 Z M 1168 910 L 1168 924 L 1182 924 L 1182 910 Z M 1481 910 L 1481 938 L 1508 938 L 1508 924 L 1495 924 L 1495 910 Z M 1522 910 L 1522 938 L 1535 938 L 1535 910 Z M 1603 910 L 1603 938 L 1617 938 L 1617 910 Z M 1685 910 L 1685 924 L 1698 924 L 1698 910 Z M 842 924 L 842 938 L 856 938 L 856 924 Z M 870 924 L 870 938 L 883 938 L 883 924 Z M 924 924 L 924 938 L 938 938 L 938 924 Z M 951 924 L 951 938 L 965 938 L 965 924 Z M 992 924 L 992 938 L 1005 938 L 1005 924 Z M 1019 924 L 1019 938 L 1033 938 L 1033 924 Z M 1155 924 L 1155 938 L 1168 938 L 1168 924 Z M 1549 924 L 1549 938 L 1563 938 L 1563 924 Z M 1576 924 L 1576 938 L 1590 938 L 1590 924 Z M 1630 924 L 1630 938 L 1644 938 L 1644 924 Z M 1658 924 L 1658 938 L 1671 938 L 1671 924 Z M 829 938 L 829 951 L 842 951 L 842 938 Z M 856 938 L 856 951 L 870 951 L 870 938 Z M 883 938 L 883 965 L 897 965 L 897 938 Z M 910 938 L 910 951 L 924 951 L 924 938 Z M 938 938 L 938 951 L 951 951 L 951 938 Z M 965 938 L 965 951 L 978 951 L 978 938 Z M 1005 938 L 1005 951 L 1019 951 L 1019 938 Z M 1033 938 L 1033 951 L 1046 951 L 1046 938 Z M 1060 938 L 1060 951 L 1073 951 L 1073 938 Z M 1101 938 L 1101 965 L 1128 965 L 1128 951 L 1114 951 L 1114 938 Z M 1467 938 L 1467 951 L 1481 951 L 1481 938 Z M 1508 938 L 1508 951 L 1522 951 L 1522 938 Z M 1535 938 L 1535 951 L 1549 951 L 1549 938 Z M 1563 938 L 1563 965 L 1576 965 L 1576 938 Z M 1590 938 L 1590 951 L 1603 951 L 1603 938 Z M 1617 938 L 1617 951 L 1630 951 L 1630 938 Z M 1644 938 L 1644 965 L 1658 965 L 1658 938 Z M 1671 938 L 1671 951 L 1685 951 L 1685 938 Z M 842 951 L 842 965 L 856 965 L 856 951 Z M 924 951 L 924 965 L 938 965 L 938 951 Z M 951 951 L 951 965 L 965 965 L 965 951 Z M 978 951 L 978 965 L 992 965 L 992 951 Z M 1019 951 L 1019 965 L 1033 965 L 1033 951 Z M 1046 951 L 1046 965 L 1060 965 L 1060 951 Z M 1073 951 L 1073 965 L 1087 965 L 1087 951 Z M 1481 951 L 1481 978 L 1508 978 L 1508 965 L 1495 965 L 1495 951 Z M 1522 951 L 1522 978 L 1535 978 L 1535 951 Z M 1603 951 L 1603 978 L 1617 978 L 1617 951 Z M 1685 951 L 1685 978 L 1698 978 L 1698 951 Z M 829 965 L 829 978 L 842 978 L 842 965 Z M 856 965 L 856 978 L 870 978 L 870 965 Z M 897 965 L 897 992 L 924 992 L 924 978 L 910 978 L 910 965 Z M 938 965 L 938 978 L 951 978 L 951 965 Z M 965 965 L 965 978 L 978 978 L 978 965 Z M 992 965 L 992 978 L 1005 978 L 1005 965 Z M 1033 965 L 1033 978 L 1046 978 L 1046 965 Z M 1060 965 L 1060 978 L 1073 978 L 1073 965 Z M 1087 965 L 1087 992 L 1101 992 L 1101 965 Z M 1549 965 L 1549 978 L 1563 978 L 1563 965 Z M 1576 965 L 1576 978 L 1590 978 L 1590 965 Z M 1630 965 L 1630 978 L 1644 978 L 1644 965 Z M 1658 965 L 1658 978 L 1671 978 L 1671 965 Z M 842 978 L 842 992 L 856 992 L 856 978 Z M 870 978 L 870 992 L 883 992 L 883 978 Z M 951 978 L 951 992 L 965 992 L 965 978 Z M 978 978 L 978 992 L 992 992 L 992 978 Z M 1005 978 L 1005 992 L 1019 992 L 1019 978 Z M 1046 978 L 1046 1005 L 1060 1005 L 1060 978 Z M 1467 978 L 1467 992 L 1481 992 L 1481 978 Z M 1508 978 L 1508 992 L 1522 992 L 1522 978 Z M 1535 978 L 1535 992 L 1549 992 L 1549 978 Z M 1563 978 L 1563 1005 L 1576 1005 L 1576 978 Z M 1590 978 L 1590 992 L 1603 992 L 1603 978 Z M 1617 978 L 1617 992 L 1630 992 L 1630 978 Z M 1644 978 L 1644 1005 L 1658 1005 L 1658 978 Z M 1671 978 L 1671 992 L 1685 992 L 1685 978 Z M 1698 978 L 1698 992 L 1712 992 L 1712 978 Z M 856 992 L 856 1005 L 870 1005 L 870 992 Z M 883 992 L 883 1019 L 897 1019 L 897 992 Z M 924 992 L 924 1005 L 938 1005 L 938 992 Z M 965 992 L 965 1005 L 978 1005 L 978 992 Z M 992 992 L 992 1005 L 1005 1005 L 1005 992 Z M 1019 992 L 1019 1005 L 1033 1005 L 1033 992 Z M 1073 992 L 1073 1005 L 1087 1005 L 1087 992 Z M 1101 992 L 1101 1019 L 1114 1019 L 1114 1005 L 1128 1005 L 1128 992 Z M 1481 992 L 1481 1019 L 1508 1019 L 1508 1005 L 1495 1005 L 1495 992 Z M 1522 992 L 1522 1019 L 1535 1019 L 1535 992 Z M 1603 992 L 1603 1019 L 1617 1019 L 1617 992 Z M 1685 992 L 1685 1005 L 1698 1005 L 1698 992 Z M 842 1005 L 842 1019 L 856 1019 L 856 1005 Z M 910 1005 L 910 1019 L 924 1019 L 924 1005 Z M 938 1005 L 938 1019 L 951 1019 L 951 1005 Z M 978 1005 L 978 1019 L 992 1019 L 992 1005 Z M 1005 1005 L 1005 1019 L 1019 1019 L 1019 1005 Z M 1033 1005 L 1033 1033 L 1046 1033 L 1046 1005 Z M 1060 1005 L 1060 1019 L 1073 1019 L 1073 1005 Z M 1549 1005 L 1549 1019 L 1563 1019 L 1563 1005 Z M 1576 1005 L 1576 1019 L 1590 1019 L 1590 1005 Z M 1630 1005 L 1630 1019 L 1644 1019 L 1644 1005 Z M 1658 1005 L 1658 1019 L 1671 1019 L 1671 1005 Z M 856 1019 L 856 1033 L 870 1033 L 870 1019 Z M 897 1019 L 897 1033 L 910 1033 L 910 1019 Z M 924 1019 L 924 1033 L 938 1033 L 938 1019 Z M 951 1019 L 951 1033 L 965 1033 L 965 1019 Z M 992 1019 L 992 1046 L 1005 1046 L 1005 1019 Z M 1073 1019 L 1073 1046 L 1101 1046 L 1101 1033 L 1087 1033 L 1087 1019 Z M 1114 1019 L 1114 1046 L 1128 1046 L 1128 1019 Z M 1467 1019 L 1467 1033 L 1481 1033 L 1481 1019 Z M 1508 1019 L 1508 1033 L 1522 1033 L 1522 1019 Z M 1535 1019 L 1535 1033 L 1549 1033 L 1549 1019 Z M 1563 1019 L 1563 1046 L 1576 1046 L 1576 1019 Z M 1590 1019 L 1590 1033 L 1603 1033 L 1603 1019 Z M 1617 1019 L 1617 1033 L 1630 1033 L 1630 1019 Z M 1644 1019 L 1644 1046 L 1658 1046 L 1658 1019 Z M 1671 1019 L 1671 1033 L 1685 1033 L 1685 1019 Z M 842 1033 L 842 1046 L 856 1046 L 856 1033 Z M 870 1033 L 870 1046 L 883 1046 L 883 1033 Z M 910 1033 L 910 1046 L 924 1046 L 924 1033 Z M 938 1033 L 938 1046 L 951 1046 L 951 1033 Z M 965 1033 L 965 1046 L 978 1046 L 978 1033 Z M 1019 1033 L 1019 1046 L 1033 1046 L 1033 1033 Z M 1046 1033 L 1046 1046 L 1060 1046 L 1060 1033 Z M 856 1046 L 856 1060 L 870 1060 L 870 1046 Z M 883 1046 L 883 1060 L 897 1060 L 897 1046 Z M 924 1046 L 924 1060 L 938 1060 L 938 1046 Z M 951 1046 L 951 1060 L 965 1060 L 965 1046 Z M 978 1046 L 978 1073 L 992 1073 L 992 1046 Z M 1005 1046 L 1005 1060 L 1019 1060 L 1019 1046 Z M 1033 1046 L 1033 1060 L 1046 1060 L 1046 1046 Z M 1060 1046 L 1060 1073 L 1073 1073 L 1073 1046 Z M 1101 1046 L 1101 1060 L 1114 1060 L 1114 1046 Z M 870 1060 L 870 1073 L 883 1073 L 883 1060 Z M 897 1060 L 897 1073 L 910 1073 L 910 1060 Z M 938 1060 L 938 1087 L 951 1087 L 951 1060 Z M 1019 1060 L 1019 1087 L 1033 1087 L 1033 1060 Z M 1087 1060 L 1087 1073 L 1101 1073 L 1101 1060 Z M 1114 1060 L 1114 1073 L 1128 1073 L 1128 1060 Z M 883 1073 L 883 1087 L 897 1087 L 897 1073 Z M 910 1073 L 910 1087 L 924 1087 L 924 1073 Z M 965 1073 L 965 1087 L 978 1087 L 978 1073 Z M 992 1073 L 992 1087 L 1005 1087 L 1005 1073 Z M 1046 1073 L 1046 1087 L 1060 1087 L 1060 1073 Z M 1073 1073 L 1073 1087 L 1087 1087 L 1087 1073 Z M 1101 1073 L 1101 1101 L 1114 1101 L 1114 1073 Z M 897 1087 L 897 1101 L 910 1101 L 910 1087 Z M 924 1087 L 924 1101 L 938 1101 L 938 1087 Z M 951 1087 L 951 1114 L 965 1114 L 965 1087 Z M 978 1087 L 978 1101 L 992 1101 L 992 1087 Z M 1005 1087 L 1005 1101 L 1019 1101 L 1019 1087 Z M 1033 1087 L 1033 1114 L 1046 1114 L 1046 1087 Z M 1060 1087 L 1060 1101 L 1073 1101 L 1073 1087 Z M 910 1101 L 910 1114 L 924 1114 L 924 1101 Z M 992 1101 L 992 1128 L 1005 1128 L 1005 1101 Z M 1073 1101 L 1073 1128 L 1101 1128 L 1101 1114 L 1087 1114 L 1087 1101 Z M 897 1114 L 897 1128 L 910 1128 L 910 1114 Z M 924 1114 L 924 1128 L 938 1128 L 938 1114 Z M 965 1114 L 965 1141 L 978 1141 L 978 1114 Z M 1019 1114 L 1019 1128 L 1033 1128 L 1033 1114 Z M 1046 1114 L 1046 1128 L 1060 1128 L 1060 1114 Z M 1590 1114 L 1590 1128 L 1603 1128 L 1603 1114 Z M 1617 1114 L 1617 1128 L 1630 1128 L 1630 1114 Z M 1644 1114 L 1644 1128 L 1658 1128 L 1658 1114 Z M 1671 1114 L 1671 1128 L 1685 1128 L 1685 1114 Z M 910 1128 L 910 1141 L 924 1141 L 924 1128 Z M 938 1128 L 938 1141 L 951 1141 L 951 1128 Z M 1005 1128 L 1005 1141 L 1019 1141 L 1019 1128 Z M 1033 1128 L 1033 1141 L 1046 1141 L 1046 1128 Z M 1060 1128 L 1060 1155 L 1073 1155 L 1073 1128 Z M 1101 1128 L 1101 1141 L 1114 1141 L 1114 1128 Z M 1576 1128 L 1576 1141 L 1590 1141 L 1590 1128 Z M 1603 1128 L 1603 1155 L 1617 1155 L 1617 1128 Z M 1630 1128 L 1630 1141 L 1644 1141 L 1644 1128 Z M 1658 1128 L 1658 1141 L 1671 1141 L 1671 1128 Z M 1685 1128 L 1685 1155 L 1698 1155 L 1698 1128 Z M 897 1141 L 897 1155 L 910 1155 L 910 1141 Z M 924 1141 L 924 1155 L 938 1155 L 938 1141 Z M 951 1141 L 951 1168 L 965 1168 L 965 1141 Z M 978 1141 L 978 1168 L 1005 1168 L 1005 1155 L 992 1155 L 992 1141 Z M 1019 1141 L 1019 1168 L 1033 1168 L 1033 1141 Z M 1087 1141 L 1087 1155 L 1101 1155 L 1101 1141 Z M 1563 1141 L 1563 1155 L 1576 1155 L 1576 1141 Z M 1644 1141 L 1644 1168 L 1658 1168 L 1658 1141 Z M 910 1155 L 910 1168 L 924 1168 L 924 1155 Z M 1046 1155 L 1046 1168 L 1060 1168 L 1060 1155 Z M 1073 1155 L 1073 1168 L 1087 1168 L 1087 1155 Z M 1495 1155 L 1495 1182 L 1522 1182 L 1522 1168 L 1508 1168 L 1508 1155 Z M 1522 1155 L 1522 1168 L 1535 1168 L 1535 1155 Z M 1549 1155 L 1549 1168 L 1563 1168 L 1563 1155 Z M 1576 1155 L 1576 1168 L 1590 1168 L 1590 1155 Z M 1617 1155 L 1617 1182 L 1630 1182 L 1630 1155 Z M 1671 1155 L 1671 1168 L 1685 1168 L 1685 1155 Z M 1698 1155 L 1698 1168 L 1712 1168 L 1712 1155 Z M 924 1168 L 924 1182 L 938 1182 L 938 1168 Z M 965 1168 L 965 1196 L 978 1196 L 978 1168 Z M 1005 1168 L 1005 1182 L 1019 1182 L 1019 1168 Z M 1033 1168 L 1033 1196 L 1046 1196 L 1046 1168 Z M 1060 1168 L 1060 1182 L 1073 1182 L 1073 1168 Z M 1087 1168 L 1087 1182 L 1101 1182 L 1101 1168 Z M 1535 1168 L 1535 1182 L 1549 1182 L 1549 1168 Z M 1563 1168 L 1563 1196 L 1576 1196 L 1576 1168 Z M 1590 1168 L 1590 1182 L 1603 1182 L 1603 1168 Z M 1658 1168 L 1658 1182 L 1671 1182 L 1671 1168 Z M 1685 1168 L 1685 1182 L 1698 1182 L 1698 1168 Z M 910 1182 L 910 1196 L 924 1196 L 924 1182 Z M 938 1182 L 938 1196 L 951 1196 L 951 1182 Z M 992 1182 L 992 1196 L 1005 1196 L 1005 1182 Z M 1073 1182 L 1073 1196 L 1087 1196 L 1087 1182 Z M 1101 1182 L 1101 1196 L 1114 1196 L 1114 1182 Z M 1522 1182 L 1522 1209 L 1535 1209 L 1535 1182 Z M 1603 1182 L 1603 1196 L 1617 1196 L 1617 1182 Z M 1630 1182 L 1630 1196 L 1644 1196 L 1644 1182 Z M 1671 1182 L 1671 1196 L 1685 1196 L 1685 1182 Z M 1698 1182 L 1698 1196 L 1712 1196 L 1712 1182 Z M 924 1196 L 924 1209 L 938 1209 L 938 1196 Z M 951 1196 L 951 1223 L 965 1223 L 965 1196 Z M 978 1196 L 978 1209 L 992 1209 L 992 1196 Z M 1005 1196 L 1005 1209 L 1019 1209 L 1019 1196 Z M 1046 1196 L 1046 1223 L 1073 1223 L 1073 1209 L 1060 1209 L 1060 1196 Z M 1087 1196 L 1087 1209 L 1101 1209 L 1101 1196 Z M 1114 1196 L 1114 1209 L 1128 1209 L 1128 1196 Z M 1495 1196 L 1495 1209 L 1508 1209 L 1508 1196 Z M 1549 1196 L 1549 1209 L 1563 1209 L 1563 1196 Z M 1576 1196 L 1576 1209 L 1590 1209 L 1590 1196 Z M 1617 1196 L 1617 1209 L 1630 1209 L 1630 1196 Z M 1644 1196 L 1644 1209 L 1658 1209 L 1658 1196 Z M 1685 1196 L 1685 1209 L 1698 1209 L 1698 1196 Z M 910 1209 L 910 1236 L 924 1236 L 924 1209 Z M 992 1209 L 992 1223 L 1005 1223 L 1005 1209 Z M 1019 1209 L 1019 1223 L 1033 1223 L 1033 1209 Z M 1101 1209 L 1101 1236 L 1114 1236 L 1114 1209 Z M 1508 1209 L 1508 1223 L 1522 1223 L 1522 1209 Z M 1535 1209 L 1535 1236 L 1549 1236 L 1549 1209 Z M 1563 1209 L 1563 1223 L 1576 1223 L 1576 1209 Z M 1590 1209 L 1590 1223 L 1603 1223 L 1603 1209 Z M 1630 1209 L 1630 1223 L 1644 1223 L 1644 1209 Z M 1658 1209 L 1658 1223 L 1671 1223 L 1671 1209 Z M 938 1223 L 938 1236 L 951 1236 L 951 1223 Z M 965 1223 L 965 1236 L 978 1236 L 978 1223 Z M 1005 1223 L 1005 1236 L 1019 1236 L 1019 1223 Z M 1033 1223 L 1033 1236 L 1046 1236 L 1046 1223 Z M 1073 1223 L 1073 1236 L 1087 1236 L 1087 1223 Z M 1128 1223 L 1128 1236 L 1141 1236 L 1141 1223 Z M 1495 1223 L 1495 1250 L 1508 1250 L 1508 1223 Z M 1576 1223 L 1576 1236 L 1590 1236 L 1590 1223 Z M 1603 1223 L 1603 1236 L 1617 1236 L 1617 1223 Z M 1644 1223 L 1644 1236 L 1658 1236 L 1658 1223 Z M 1671 1223 L 1671 1236 L 1685 1236 L 1685 1223 Z M 924 1236 L 924 1250 L 938 1250 L 938 1236 Z M 951 1236 L 951 1264 L 965 1264 L 965 1236 Z M 978 1236 L 978 1264 L 1005 1264 L 1005 1250 L 992 1250 L 992 1236 Z M 1019 1236 L 1019 1250 L 1033 1250 L 1033 1236 Z M 1046 1236 L 1046 1250 L 1060 1250 L 1060 1236 Z M 1087 1236 L 1087 1250 L 1101 1250 L 1101 1236 Z M 1114 1236 L 1114 1250 L 1128 1250 L 1128 1236 Z M 1522 1236 L 1522 1250 L 1535 1250 L 1535 1236 Z M 1549 1236 L 1549 1250 L 1563 1250 L 1563 1236 Z M 1590 1236 L 1590 1250 L 1603 1250 L 1603 1236 Z M 1617 1236 L 1617 1250 L 1630 1250 L 1630 1236 Z M 1658 1236 L 1658 1250 L 1671 1250 L 1671 1236 Z M 1685 1236 L 1685 1250 L 1698 1250 L 1698 1236 Z M 910 1250 L 910 1264 L 924 1264 L 924 1250 Z M 1033 1250 L 1033 1264 L 1046 1264 L 1046 1250 Z M 1060 1250 L 1060 1264 L 1073 1264 L 1073 1250 Z M 1101 1250 L 1101 1277 L 1114 1277 L 1114 1250 Z M 1508 1250 L 1508 1264 L 1522 1264 L 1522 1250 Z M 1535 1250 L 1535 1264 L 1549 1264 L 1549 1250 Z M 1563 1250 L 1563 1264 L 1576 1264 L 1576 1250 Z M 1603 1250 L 1603 1264 L 1617 1264 L 1617 1250 Z M 1630 1250 L 1630 1264 L 1644 1264 L 1644 1250 Z M 1671 1250 L 1671 1264 L 1685 1264 L 1685 1250 Z M 897 1264 L 897 1277 L 910 1277 L 910 1264 Z M 924 1264 L 924 1277 L 938 1277 L 938 1264 Z M 965 1264 L 965 1291 L 978 1291 L 978 1264 Z M 1005 1264 L 1005 1277 L 1019 1277 L 1019 1264 Z M 1046 1264 L 1046 1277 L 1060 1277 L 1060 1264 Z M 1073 1264 L 1073 1277 L 1087 1277 L 1087 1264 Z M 1128 1264 L 1128 1277 L 1141 1277 L 1141 1264 Z M 1481 1264 L 1481 1277 L 1495 1277 L 1495 1264 Z M 1522 1264 L 1522 1277 L 1535 1277 L 1535 1264 Z M 1549 1264 L 1549 1277 L 1563 1277 L 1563 1264 Z M 1576 1264 L 1576 1277 L 1590 1277 L 1590 1264 Z M 1617 1264 L 1617 1277 L 1630 1277 L 1630 1264 Z M 1644 1264 L 1644 1277 L 1658 1277 L 1658 1264 Z M 1685 1264 L 1685 1291 L 1698 1291 L 1698 1264 Z M 910 1277 L 910 1291 L 924 1291 L 924 1277 Z M 938 1277 L 938 1291 L 951 1291 L 951 1277 Z M 992 1277 L 992 1291 L 1005 1291 L 1005 1277 Z M 1019 1277 L 1019 1291 L 1033 1291 L 1033 1277 Z M 1060 1277 L 1060 1291 L 1073 1291 L 1073 1277 Z M 1087 1277 L 1087 1291 L 1101 1291 L 1101 1277 Z M 1114 1277 L 1114 1304 L 1128 1304 L 1128 1277 Z M 1141 1277 L 1141 1291 L 1155 1291 L 1155 1277 Z M 1495 1277 L 1495 1291 L 1508 1291 L 1508 1277 Z M 1535 1277 L 1535 1291 L 1549 1291 L 1549 1277 Z M 1563 1277 L 1563 1291 L 1576 1291 L 1576 1277 Z M 1590 1277 L 1590 1291 L 1603 1291 L 1603 1277 Z M 1630 1277 L 1630 1291 L 1644 1291 L 1644 1277 Z M 1658 1277 L 1658 1291 L 1671 1291 L 1671 1277 Z M 897 1291 L 897 1304 L 910 1304 L 910 1291 Z M 924 1291 L 924 1304 L 938 1304 L 938 1291 Z M 951 1291 L 951 1318 L 965 1318 L 965 1291 Z M 978 1291 L 978 1304 L 992 1304 L 992 1291 Z M 1005 1291 L 1005 1304 L 1019 1304 L 1019 1291 Z M 1033 1291 L 1033 1304 L 1046 1304 L 1046 1291 Z M 1073 1291 L 1073 1318 L 1087 1318 L 1087 1291 Z M 1481 1291 L 1481 1304 L 1495 1304 L 1495 1291 Z M 1508 1291 L 1508 1304 L 1522 1304 L 1522 1291 Z M 1549 1291 L 1549 1304 L 1563 1304 L 1563 1291 Z M 1576 1291 L 1576 1304 L 1590 1304 L 1590 1291 Z M 1603 1291 L 1603 1304 L 1617 1304 L 1617 1291 Z M 1644 1291 L 1644 1304 L 1658 1304 L 1658 1291 Z M 1671 1291 L 1671 1304 L 1685 1304 L 1685 1291 Z M 883 1304 L 883 1318 L 897 1318 L 897 1304 Z M 910 1304 L 910 1318 L 924 1318 L 924 1304 Z M 992 1304 L 992 1318 L 1005 1318 L 1005 1304 Z M 1019 1304 L 1019 1318 L 1033 1318 L 1033 1304 Z M 1046 1304 L 1046 1318 L 1060 1318 L 1060 1304 Z M 1101 1304 L 1101 1318 L 1114 1318 L 1114 1304 Z M 1128 1304 L 1128 1318 L 1141 1318 L 1141 1304 Z M 1495 1304 L 1495 1318 L 1508 1318 L 1508 1304 Z M 1522 1304 L 1522 1318 L 1535 1318 L 1535 1304 Z M 1563 1304 L 1563 1318 L 1576 1318 L 1576 1304 Z M 1590 1304 L 1590 1318 L 1603 1318 L 1603 1304 Z M 1617 1304 L 1617 1318 L 1630 1318 L 1630 1304 Z M 1658 1304 L 1658 1332 L 1671 1332 L 1671 1304 Z M 897 1318 L 897 1332 L 910 1332 L 910 1318 Z M 924 1318 L 924 1332 L 938 1332 L 938 1318 Z M 965 1318 L 965 1345 L 992 1345 L 992 1332 L 978 1332 L 978 1318 Z M 1005 1318 L 1005 1332 L 1019 1332 L 1019 1318 Z M 1033 1318 L 1033 1332 L 1046 1332 L 1046 1318 Z M 1060 1318 L 1060 1345 L 1073 1345 L 1073 1318 Z M 1087 1318 L 1087 1332 L 1101 1332 L 1101 1318 Z M 1114 1318 L 1114 1332 L 1128 1332 L 1128 1318 Z M 1481 1318 L 1481 1332 L 1495 1332 L 1495 1318 Z M 1508 1318 L 1508 1332 L 1522 1332 L 1522 1318 Z M 1535 1318 L 1535 1332 L 1549 1332 L 1549 1318 Z M 1576 1318 L 1576 1332 L 1590 1332 L 1590 1318 Z M 1603 1318 L 1603 1332 L 1617 1332 L 1617 1318 Z M 1630 1318 L 1630 1332 L 1644 1332 L 1644 1318 Z M 1685 1318 L 1685 1332 L 1698 1332 L 1698 1318 Z M 910 1332 L 910 1345 L 924 1345 L 924 1332 Z M 938 1332 L 938 1345 L 951 1345 L 951 1332 Z M 1019 1332 L 1019 1359 L 1033 1359 L 1033 1332 Z M 1101 1332 L 1101 1345 L 1114 1345 L 1114 1332 Z M 1128 1332 L 1128 1345 L 1155 1345 L 1155 1332 Z M 1495 1332 L 1495 1345 L 1508 1345 L 1508 1332 Z M 1522 1332 L 1522 1359 L 1535 1359 L 1535 1332 Z M 1549 1332 L 1549 1359 L 1563 1359 L 1563 1372 L 1576 1372 L 1576 1345 L 1563 1345 L 1563 1332 Z M 1590 1332 L 1590 1345 L 1603 1345 L 1603 1332 Z M 1617 1332 L 1617 1345 L 1630 1345 L 1630 1332 Z M 1644 1332 L 1644 1359 L 1658 1359 L 1658 1332 Z M 1671 1332 L 1671 1345 L 1685 1345 L 1685 1332 Z M 883 1345 L 883 1359 L 897 1359 L 897 1345 Z M 924 1345 L 924 1359 L 938 1359 L 938 1345 Z M 951 1345 L 951 1359 L 965 1359 L 965 1345 Z M 992 1345 L 992 1359 L 1005 1359 L 1005 1345 Z M 1046 1345 L 1046 1359 L 1060 1359 L 1060 1345 Z M 1073 1345 L 1073 1359 L 1087 1359 L 1087 1345 Z M 1114 1345 L 1114 1372 L 1128 1372 L 1128 1345 Z M 1481 1345 L 1481 1372 L 1495 1372 L 1495 1345 Z M 1603 1345 L 1603 1359 L 1617 1359 L 1617 1345 Z M 1685 1345 L 1685 1372 L 1698 1372 L 1698 1345 Z M 870 1359 L 870 1372 L 883 1372 L 883 1359 Z M 897 1359 L 897 1372 L 910 1372 L 910 1359 Z M 938 1359 L 938 1372 L 951 1372 L 951 1359 Z M 965 1359 L 965 1372 L 978 1372 L 978 1359 Z M 1005 1359 L 1005 1372 L 1019 1372 L 1019 1359 Z M 1033 1359 L 1033 1372 L 1046 1372 L 1046 1359 Z M 1060 1359 L 1060 1386 L 1073 1386 L 1073 1359 Z M 1087 1359 L 1087 1372 L 1101 1372 L 1101 1359 Z M 1508 1359 L 1508 1372 L 1522 1372 L 1522 1359 Z M 1590 1359 L 1590 1372 L 1603 1372 L 1603 1359 Z M 1617 1359 L 1617 1372 L 1630 1372 L 1630 1359 Z M 1658 1359 L 1658 1386 L 1671 1386 L 1671 1359 Z M 883 1372 L 883 1386 L 897 1386 L 897 1372 Z M 910 1372 L 910 1386 L 924 1386 L 924 1372 Z M 951 1372 L 951 1386 L 965 1386 L 965 1372 Z M 978 1372 L 978 1386 L 992 1386 L 992 1372 Z M 1019 1372 L 1019 1399 L 1033 1399 L 1033 1372 Z M 1101 1372 L 1101 1386 L 1114 1386 L 1114 1372 Z M 1128 1372 L 1128 1386 L 1141 1386 L 1141 1372 Z M 1467 1372 L 1467 1386 L 1481 1386 L 1481 1372 Z M 1495 1372 L 1495 1399 L 1508 1399 L 1508 1372 Z M 1522 1372 L 1522 1386 L 1535 1386 L 1535 1399 L 1549 1399 L 1549 1372 Z M 1576 1372 L 1576 1386 L 1590 1386 L 1590 1372 Z M 1603 1372 L 1603 1399 L 1617 1399 L 1617 1372 Z M 1630 1372 L 1630 1386 L 1644 1386 L 1644 1372 Z M 856 1386 L 856 1413 L 883 1413 L 883 1399 L 870 1399 L 870 1386 Z M 897 1386 L 897 1399 L 910 1399 L 910 1386 Z M 924 1386 L 924 1399 L 938 1399 L 938 1386 Z M 965 1386 L 965 1399 L 978 1399 L 978 1386 Z M 992 1386 L 992 1399 L 1005 1399 L 1005 1386 Z M 1046 1386 L 1046 1399 L 1060 1399 L 1060 1386 Z M 1073 1386 L 1073 1399 L 1087 1399 L 1087 1386 Z M 1114 1386 L 1114 1399 L 1128 1399 L 1128 1386 Z M 1141 1386 L 1141 1399 L 1155 1399 L 1155 1386 Z M 1563 1386 L 1563 1399 L 1576 1399 L 1576 1386 Z M 1644 1386 L 1644 1399 L 1658 1399 L 1658 1386 Z M 1671 1386 L 1671 1399 L 1685 1399 L 1685 1386 Z M 910 1399 L 910 1413 L 924 1413 L 924 1399 Z M 938 1399 L 938 1413 L 951 1413 L 951 1399 Z M 978 1399 L 978 1413 L 992 1413 L 992 1399 Z M 1005 1399 L 1005 1413 L 1019 1413 L 1019 1399 Z M 1033 1399 L 1033 1427 L 1046 1427 L 1046 1399 Z M 1060 1399 L 1060 1413 L 1073 1413 L 1073 1399 Z M 1087 1399 L 1087 1413 L 1101 1413 L 1101 1399 Z M 1128 1399 L 1128 1427 L 1141 1427 L 1141 1399 Z M 1481 1399 L 1481 1413 L 1495 1413 L 1495 1399 Z M 1508 1399 L 1508 1413 L 1522 1413 L 1522 1399 Z M 1549 1399 L 1549 1413 L 1563 1413 L 1563 1399 Z M 1576 1399 L 1576 1413 L 1590 1413 L 1590 1399 Z M 1617 1399 L 1617 1427 L 1644 1427 L 1644 1413 L 1630 1413 L 1630 1399 Z M 1658 1399 L 1658 1413 L 1671 1413 L 1671 1399 Z M 1685 1399 L 1685 1413 L 1698 1413 L 1698 1399 Z M 842 1413 L 842 1427 L 856 1427 L 856 1413 Z M 883 1413 L 883 1440 L 910 1440 L 910 1427 L 897 1427 L 897 1413 Z M 924 1413 L 924 1427 L 938 1427 L 938 1413 Z M 951 1413 L 951 1427 L 965 1427 L 965 1413 Z M 992 1413 L 992 1440 L 1005 1440 L 1005 1413 Z M 1073 1413 L 1073 1427 L 1087 1427 L 1087 1413 Z M 1101 1413 L 1101 1427 L 1114 1427 L 1114 1413 Z M 1155 1413 L 1155 1427 L 1168 1427 L 1168 1413 Z M 1467 1413 L 1467 1427 L 1481 1427 L 1481 1413 Z M 1495 1413 L 1495 1440 L 1508 1440 L 1508 1413 Z M 1522 1413 L 1522 1440 L 1535 1440 L 1535 1454 L 1549 1454 L 1549 1427 L 1535 1427 L 1535 1413 Z M 1563 1413 L 1563 1427 L 1576 1427 L 1576 1413 Z M 1590 1413 L 1590 1427 L 1603 1427 L 1603 1413 Z M 1671 1413 L 1671 1427 L 1685 1427 L 1685 1413 Z M 856 1427 L 856 1440 L 870 1440 L 870 1427 Z M 938 1427 L 938 1440 L 951 1440 L 951 1427 Z M 965 1427 L 965 1440 L 978 1440 L 978 1427 Z M 1019 1427 L 1019 1440 L 1033 1440 L 1033 1427 Z M 1046 1427 L 1046 1440 L 1060 1440 L 1060 1427 Z M 1087 1427 L 1087 1440 L 1101 1440 L 1101 1427 Z M 1114 1427 L 1114 1440 L 1128 1440 L 1128 1427 Z M 1576 1427 L 1576 1440 L 1590 1440 L 1590 1427 Z M 1603 1427 L 1603 1454 L 1617 1454 L 1617 1427 Z M 1644 1427 L 1644 1440 L 1658 1440 L 1658 1427 Z M 1685 1427 L 1685 1454 L 1698 1454 L 1698 1427 Z M 870 1440 L 870 1454 L 883 1454 L 883 1440 Z M 910 1440 L 910 1467 L 938 1467 L 938 1454 L 924 1454 L 924 1440 Z M 951 1440 L 951 1454 L 965 1454 L 965 1440 Z M 978 1440 L 978 1454 L 992 1454 L 992 1440 Z M 1005 1440 L 1005 1467 L 1019 1467 L 1019 1440 Z M 1033 1440 L 1033 1454 L 1046 1454 L 1046 1440 Z M 1060 1440 L 1060 1454 L 1073 1454 L 1073 1440 Z M 1101 1440 L 1101 1467 L 1114 1467 L 1114 1440 Z M 1481 1440 L 1481 1454 L 1495 1454 L 1495 1440 Z M 1563 1440 L 1563 1454 L 1576 1454 L 1576 1440 Z M 1630 1440 L 1630 1454 L 1644 1454 L 1644 1440 Z M 1658 1440 L 1658 1454 L 1671 1454 L 1671 1440 Z M 883 1454 L 883 1467 L 897 1467 L 897 1454 Z M 965 1454 L 965 1481 L 978 1481 L 978 1454 Z M 1046 1454 L 1046 1467 L 1060 1467 L 1060 1454 Z M 1073 1454 L 1073 1467 L 1087 1467 L 1087 1454 Z M 1128 1454 L 1128 1467 L 1141 1467 L 1141 1454 Z M 1467 1454 L 1467 1467 L 1481 1467 L 1481 1454 Z M 1495 1454 L 1495 1481 L 1508 1481 L 1508 1467 L 1522 1467 L 1522 1454 Z M 1549 1454 L 1549 1467 L 1563 1467 L 1563 1454 Z M 1576 1454 L 1576 1467 L 1590 1467 L 1590 1454 Z M 1617 1454 L 1617 1467 L 1630 1467 L 1630 1454 Z M 1644 1454 L 1644 1467 L 1658 1467 L 1658 1454 Z M 1671 1454 L 1671 1481 L 1685 1481 L 1685 1454 Z M 1698 1454 L 1698 1467 L 1712 1467 L 1712 1454 Z M 870 1467 L 870 1481 L 883 1481 L 883 1467 Z M 897 1467 L 897 1481 L 910 1481 L 910 1467 Z M 938 1467 L 938 1481 L 951 1481 L 951 1467 Z M 992 1467 L 992 1481 L 1005 1481 L 1005 1467 Z M 1019 1467 L 1019 1481 L 1033 1481 L 1033 1467 Z M 1060 1467 L 1060 1481 L 1073 1481 L 1073 1467 Z M 1087 1467 L 1087 1481 L 1101 1481 L 1101 1467 Z M 1114 1467 L 1114 1495 L 1128 1495 L 1128 1467 Z M 1522 1467 L 1522 1495 L 1535 1495 L 1535 1508 L 1549 1508 L 1549 1481 L 1535 1481 L 1535 1467 Z M 1563 1467 L 1563 1481 L 1576 1481 L 1576 1467 Z M 1590 1467 L 1590 1481 L 1603 1481 L 1603 1467 Z M 1630 1467 L 1630 1495 L 1644 1495 L 1644 1467 Z M 883 1481 L 883 1495 L 897 1495 L 897 1481 Z M 910 1481 L 910 1495 L 924 1495 L 924 1481 Z M 951 1481 L 951 1495 L 965 1495 L 965 1481 Z M 978 1481 L 978 1495 L 992 1495 L 992 1481 Z M 1005 1481 L 1005 1508 L 1019 1508 L 1019 1481 Z M 1033 1481 L 1033 1508 L 1046 1508 L 1046 1522 L 1060 1522 L 1060 1495 L 1046 1495 L 1046 1481 Z M 1073 1481 L 1073 1508 L 1087 1508 L 1087 1481 Z M 1481 1481 L 1481 1495 L 1495 1495 L 1495 1481 Z M 1576 1481 L 1576 1495 L 1590 1495 L 1590 1481 Z M 1603 1481 L 1603 1495 L 1617 1495 L 1617 1481 Z M 1658 1481 L 1658 1495 L 1671 1495 L 1671 1481 Z M 1685 1481 L 1685 1495 L 1698 1495 L 1698 1481 Z M 870 1495 L 870 1508 L 883 1508 L 883 1495 Z M 897 1495 L 897 1508 L 910 1508 L 910 1495 Z M 924 1495 L 924 1508 L 938 1508 L 938 1495 Z M 965 1495 L 965 1522 L 978 1522 L 978 1495 Z M 1101 1495 L 1101 1508 L 1114 1508 L 1114 1495 Z M 1128 1495 L 1128 1508 L 1141 1508 L 1141 1495 Z M 1467 1495 L 1467 1508 L 1481 1508 L 1481 1495 Z M 1495 1495 L 1495 1508 L 1508 1508 L 1508 1495 Z M 1563 1495 L 1563 1508 L 1576 1508 L 1576 1495 Z M 1590 1495 L 1590 1508 L 1603 1508 L 1603 1495 Z M 1644 1495 L 1644 1508 L 1658 1508 L 1658 1495 Z M 1671 1495 L 1671 1508 L 1685 1508 L 1685 1495 Z M 883 1508 L 883 1522 L 897 1522 L 897 1508 Z M 910 1508 L 910 1535 L 924 1535 L 924 1508 Z M 938 1508 L 938 1522 L 951 1522 L 951 1508 Z M 992 1508 L 992 1522 L 1005 1522 L 1005 1508 Z M 1087 1508 L 1087 1522 L 1101 1522 L 1101 1508 Z M 1114 1508 L 1114 1522 L 1128 1522 L 1128 1508 Z M 870 1522 L 870 1549 L 883 1549 L 883 1522 Z M 951 1522 L 951 1535 L 965 1535 L 965 1522 Z M 978 1522 L 978 1535 L 992 1535 L 992 1522 Z M 1005 1522 L 1005 1549 L 1019 1549 L 1019 1535 L 1033 1535 L 1033 1522 Z M 1060 1522 L 1060 1549 L 1073 1549 L 1073 1563 L 1087 1563 L 1087 1535 L 1073 1535 L 1073 1522 Z M 1101 1522 L 1101 1549 L 1114 1549 L 1114 1522 Z M 897 1535 L 897 1549 L 910 1549 L 910 1535 Z M 924 1535 L 924 1549 L 938 1549 L 938 1535 Z M 965 1535 L 965 1563 L 978 1563 L 978 1535 Z M 1033 1535 L 1033 1563 L 1046 1563 L 1046 1535 Z M 1128 1535 L 1128 1549 L 1141 1549 L 1141 1535 Z M 883 1549 L 883 1563 L 897 1563 L 897 1549 Z M 910 1549 L 910 1576 L 924 1576 L 924 1549 Z M 938 1549 L 938 1563 L 951 1563 L 951 1549 Z M 992 1549 L 992 1563 L 1005 1563 L 1005 1549 Z M 1114 1549 L 1114 1576 L 1128 1576 L 1128 1549 Z M 870 1563 L 870 1590 L 883 1590 L 883 1563 Z M 951 1563 L 951 1576 L 965 1576 L 965 1563 Z M 978 1563 L 978 1576 L 992 1576 L 992 1563 Z M 1005 1563 L 1005 1576 L 1019 1576 L 1019 1563 Z M 1046 1563 L 1046 1590 L 1073 1590 L 1073 1576 L 1060 1576 L 1060 1563 Z M 1087 1563 L 1087 1590 L 1101 1590 L 1101 1563 Z M 897 1576 L 897 1590 L 910 1590 L 910 1576 Z M 924 1576 L 924 1590 L 938 1590 L 938 1576 Z M 965 1576 L 965 1590 L 978 1590 L 978 1576 Z M 992 1576 L 992 1590 L 1005 1590 L 1005 1576 Z M 1019 1576 L 1019 1590 L 1033 1590 L 1033 1576 Z M 883 1590 L 883 1603 L 897 1603 L 897 1590 Z M 910 1590 L 910 1617 L 924 1617 L 924 1590 Z M 938 1590 L 938 1617 L 951 1617 L 951 1630 L 965 1630 L 965 1603 L 951 1603 L 951 1590 Z M 978 1590 L 978 1603 L 992 1603 L 992 1590 Z M 1005 1590 L 1005 1603 L 1019 1603 L 1019 1590 Z M 1033 1590 L 1033 1617 L 1046 1617 L 1046 1590 Z M 1073 1590 L 1073 1603 L 1087 1603 L 1087 1590 Z M 1101 1590 L 1101 1603 L 1114 1603 L 1114 1590 Z M 870 1603 L 870 1630 L 883 1630 L 883 1603 Z M 992 1603 L 992 1617 L 1005 1617 L 1005 1603 Z M 1060 1603 L 1060 1617 L 1073 1617 L 1073 1603 Z M 1087 1603 L 1087 1617 L 1101 1617 L 1101 1603 Z M 1114 1603 L 1114 1630 L 1128 1630 L 1128 1603 Z M 897 1617 L 897 1630 L 910 1630 L 910 1617 Z M 978 1617 L 978 1630 L 992 1630 L 992 1617 Z M 1005 1617 L 1005 1630 L 1019 1630 L 1019 1617 Z M 1046 1617 L 1046 1630 L 1060 1630 L 1060 1617 Z M 1073 1617 L 1073 1630 L 1087 1630 L 1087 1617 Z M 883 1630 L 883 1644 L 897 1644 L 897 1630 Z M 910 1630 L 910 1658 L 924 1658 L 924 1644 L 938 1644 L 938 1630 Z M 965 1630 L 965 1644 L 978 1644 L 978 1630 Z M 992 1630 L 992 1644 L 1005 1644 L 1005 1630 Z M 1019 1630 L 1019 1644 L 1033 1644 L 1033 1630 Z M 1060 1630 L 1060 1644 L 1073 1644 L 1073 1630 Z M 1087 1630 L 1087 1644 L 1101 1644 L 1101 1630 Z M 870 1644 L 870 1671 L 883 1671 L 883 1644 Z M 938 1644 L 938 1671 L 951 1671 L 951 1685 L 965 1685 L 965 1658 L 951 1658 L 951 1644 Z M 978 1644 L 978 1658 L 992 1658 L 992 1644 Z M 1005 1644 L 1005 1658 L 1019 1658 L 1019 1644 Z M 1033 1644 L 1033 1658 L 1046 1658 L 1046 1644 Z M 1073 1644 L 1073 1658 L 1087 1658 L 1087 1644 Z M 1101 1644 L 1101 1658 L 1114 1658 L 1114 1644 Z M 897 1658 L 897 1671 L 910 1671 L 910 1658 Z M 992 1658 L 992 1671 L 1005 1671 L 1005 1658 Z M 1019 1658 L 1019 1685 L 1033 1685 L 1033 1658 Z M 1046 1658 L 1046 1685 L 1073 1685 L 1073 1671 L 1060 1671 L 1060 1658 Z M 1087 1658 L 1087 1671 L 1101 1671 L 1101 1658 Z M 1114 1658 L 1114 1671 L 1128 1671 L 1128 1658 Z M 883 1671 L 883 1685 L 897 1685 L 897 1671 Z M 910 1671 L 910 1685 L 924 1685 L 924 1671 Z M 978 1671 L 978 1685 L 992 1685 L 992 1671 Z M 1101 1671 L 1101 1685 L 1114 1685 L 1114 1671 Z M 870 1685 L 870 1698 L 883 1698 L 883 1685 Z M 897 1685 L 897 1698 L 910 1698 L 910 1685 Z M 924 1685 L 924 1698 L 938 1698 L 938 1685 Z M 965 1685 L 965 1698 L 978 1698 L 978 1685 Z M 992 1685 L 992 1698 L 1005 1698 L 1005 1685 Z M 1033 1685 L 1033 1712 L 1046 1712 L 1046 1685 Z M 1073 1685 L 1073 1698 L 1087 1698 L 1087 1685 Z M 883 1698 L 883 1712 L 897 1712 L 897 1698 Z M 910 1698 L 910 1726 L 924 1726 L 924 1698 Z M 938 1698 L 938 1726 L 951 1726 L 951 1739 L 965 1739 L 965 1712 L 951 1712 L 951 1698 Z M 978 1698 L 978 1712 L 992 1712 L 992 1698 Z M 1005 1698 L 1005 1712 L 1019 1712 L 1019 1698 Z M 1060 1698 L 1060 1712 L 1073 1712 L 1073 1698 Z M 1087 1698 L 1087 1712 L 1101 1712 L 1101 1698 Z M 870 1712 L 870 1739 L 883 1739 L 883 1712 Z M 992 1712 L 992 1726 L 1005 1726 L 1005 1712 Z M 1019 1712 L 1019 1739 L 1033 1739 L 1033 1712 Z M 1046 1712 L 1046 1726 L 1060 1726 L 1060 1712 Z M 1073 1712 L 1073 1726 L 1087 1726 L 1087 1712 Z M 897 1726 L 897 1739 L 910 1739 L 910 1726 Z M 978 1726 L 978 1739 L 992 1739 L 992 1726 Z M 1060 1726 L 1060 1753 L 1073 1753 L 1073 1726 Z M 883 1739 L 883 1753 L 897 1753 L 897 1739 Z M 910 1739 L 910 1766 L 924 1766 L 924 1753 L 938 1753 L 938 1739 Z M 965 1739 L 965 1753 L 978 1753 L 978 1739 Z M 992 1739 L 992 1753 L 1005 1753 L 1005 1739 Z M 1033 1739 L 1033 1766 L 1046 1766 L 1046 1739 Z M 1087 1739 L 1087 1753 L 1101 1753 L 1101 1739 Z M 870 1753 L 870 1780 L 883 1780 L 883 1753 Z M 938 1753 L 938 1780 L 951 1780 L 951 1793 L 965 1793 L 965 1766 L 951 1766 L 951 1753 Z M 978 1753 L 978 1766 L 992 1766 L 992 1753 Z M 1005 1753 L 1005 1766 L 1019 1766 L 1019 1753 Z M 1073 1753 L 1073 1766 L 1087 1766 L 1087 1753 Z M 897 1766 L 897 1780 L 910 1780 L 910 1766 Z M 992 1766 L 992 1780 L 1005 1780 L 1005 1766 Z M 1019 1766 L 1019 1793 L 1033 1793 L 1033 1766 Z M 1046 1766 L 1046 1793 L 1073 1793 L 1073 1780 L 1060 1780 L 1060 1766 Z M 883 1780 L 883 1793 L 897 1793 L 897 1780 Z M 910 1780 L 910 1793 L 924 1793 L 924 1780 Z M 978 1780 L 978 1793 L 992 1793 L 992 1780 Z M 870 1793 L 870 1807 L 883 1807 L 883 1793 Z M 897 1793 L 897 1807 L 910 1807 L 910 1793 Z M 924 1793 L 924 1807 L 938 1807 L 938 1793 Z M 965 1793 L 965 1807 L 978 1807 L 978 1793 Z M 992 1793 L 992 1807 L 1005 1807 L 1005 1793 Z M 1033 1793 L 1033 1821 L 1046 1821 L 1046 1793 Z M 1073 1793 L 1073 1807 L 1087 1807 L 1087 1793 Z M 883 1807 L 883 1821 L 897 1821 L 897 1807 Z M 910 1807 L 910 1834 L 924 1834 L 924 1807 Z M 938 1807 L 938 1834 L 951 1834 L 951 1848 L 965 1848 L 965 1821 L 951 1821 L 951 1807 Z M 978 1807 L 978 1821 L 992 1821 L 992 1807 Z M 1005 1807 L 1005 1821 L 1019 1821 L 1019 1807 Z M 1060 1807 L 1060 1821 L 1073 1821 L 1073 1807 Z M 870 1821 L 870 1848 L 883 1848 L 883 1821 Z M 992 1821 L 992 1834 L 1005 1834 L 1005 1821 Z M 1019 1821 L 1019 1848 L 1033 1848 L 1033 1821 Z M 1046 1821 L 1046 1834 L 1060 1834 L 1060 1821 Z M 897 1834 L 897 1848 L 910 1848 L 910 1834 Z M 978 1834 L 978 1848 L 992 1848 L 992 1834 Z M 1060 1834 L 1060 1861 L 1073 1861 L 1073 1834 Z M 856 1848 L 856 1861 L 870 1861 L 870 1848 Z M 883 1848 L 883 1861 L 897 1861 L 897 1848 Z M 910 1848 L 910 1875 L 924 1875 L 924 1861 L 938 1861 L 938 1848 Z M 965 1848 L 965 1861 L 978 1861 L 978 1848 Z M 992 1848 L 992 1861 L 1005 1861 L 1005 1848 Z M 1033 1848 L 1033 1875 L 1046 1875 L 1046 1848 Z M 870 1861 L 870 1875 L 883 1875 L 883 1861 Z M 938 1861 L 938 1875 L 951 1875 L 951 1861 Z M 978 1861 L 978 1875 L 992 1875 L 992 1861 Z M 1005 1861 L 1005 1875 L 1019 1875 L 1019 1861 Z M 856 1875 L 856 1889 L 870 1889 L 870 1875 Z M 883 1875 L 883 1889 L 897 1889 L 897 1875 Z M 924 1875 L 924 1889 L 938 1889 L 938 1875 Z M 951 1875 L 951 1889 L 965 1889 L 965 1875 Z M 992 1875 L 992 1889 L 1005 1889 L 1005 1875 Z M 1019 1875 L 1019 1889 L 1033 1889 L 1033 1875 Z M 1046 1875 L 1046 1889 L 1060 1889 L 1060 1875 Z M 870 1889 L 870 1902 L 883 1902 L 883 1889 Z M 897 1889 L 897 1902 L 910 1902 L 910 1889 Z M 938 1889 L 938 1902 L 951 1902 L 951 1889 Z M 965 1889 L 965 1902 L 978 1902 L 978 1889 Z M 1005 1889 L 1005 1902 L 1019 1902 L 1019 1889 Z M 1033 1889 L 1033 1902 L 1046 1902 L 1046 1889 Z M 842 1902 L 842 1929 L 856 1929 L 856 1943 L 870 1943 L 870 1916 L 856 1916 L 856 1902 Z M 883 1902 L 883 1916 L 897 1916 L 897 1902 Z M 910 1902 L 910 1916 L 924 1916 L 924 1902 Z M 951 1902 L 951 1916 L 965 1916 L 965 1902 Z M 978 1902 L 978 1916 L 992 1916 L 992 1902 Z M 1019 1902 L 1019 1929 L 1033 1929 L 1033 1902 Z M 897 1916 L 897 1929 L 910 1929 L 910 1916 Z M 924 1916 L 924 1929 L 938 1929 L 938 1916 Z M 965 1916 L 965 1929 L 978 1929 L 978 1916 Z M 992 1916 L 992 1929 L 1005 1929 L 1005 1916 Z M 1046 1916 L 1046 1929 L 1060 1929 L 1060 1916 Z M 883 1929 L 883 1943 L 897 1943 L 897 1929 Z M 910 1929 L 910 1943 L 924 1943 L 924 1929 Z M 938 1929 L 938 1943 L 951 1943 L 951 1929 Z M 978 1929 L 978 1943 L 992 1943 L 992 1929 Z M 1005 1929 L 1005 1943 L 1019 1943 L 1019 1929 Z M 1033 1929 L 1033 1957 L 1046 1957 L 1046 1929 Z M 842 1943 L 842 1957 L 856 1957 L 856 1943 Z M 870 1943 L 870 1957 L 883 1957 L 883 1943 Z M 897 1943 L 897 1970 L 910 1970 L 910 1943 Z M 924 1943 L 924 1957 L 938 1957 L 938 1943 Z M 951 1943 L 951 1957 L 965 1957 L 965 1943 Z M 992 1943 L 992 1970 L 1005 1970 L 1005 1943 Z M 856 1957 L 856 1970 L 870 1970 L 870 1957 Z M 938 1957 L 938 1970 L 951 1970 L 951 1957 Z M 965 1957 L 965 1970 L 978 1970 L 978 1957 Z M 1019 1957 L 1019 1970 L 1033 1970 L 1033 1957 Z M 1046 1957 L 1046 1970 L 1060 1970 L 1060 1957 Z M 842 1970 L 842 1984 L 856 1984 L 856 1970 Z M 870 1970 L 870 1984 L 883 1984 L 883 1970 Z M 910 1970 L 910 1997 L 938 1997 L 938 1984 L 924 1984 L 924 1970 Z M 951 1970 L 951 1984 L 965 1984 L 965 1970 Z M 978 1970 L 978 1984 L 992 1984 L 992 1970 Z M 1005 1970 L 1005 1997 L 1019 1997 L 1019 1970 Z M 1033 1970 L 1033 1984 L 1046 1984 L 1046 1970 Z M 829 1984 L 829 1997 L 842 1997 L 842 1984 Z M 856 1984 L 856 1997 L 870 1997 L 870 1984 Z M 883 1984 L 883 1997 L 897 1997 L 897 1984 Z M 965 1984 L 965 2011 L 978 2011 L 978 1984 Z M 842 1997 L 842 2011 L 856 2011 L 856 1997 Z M 870 1997 L 870 2011 L 883 2011 L 883 1997 Z M 897 1997 L 897 2024 L 910 2024 L 910 1997 Z M 938 1997 L 938 2011 L 951 2011 L 951 1997 Z M 992 1997 L 992 2011 L 1005 2011 L 1005 1997 Z M 1019 1997 L 1019 2011 L 1033 2011 L 1033 1997 Z M 856 2011 L 856 2038 L 870 2038 L 870 2011 Z M 924 2011 L 924 2024 L 938 2024 L 938 2011 Z M 951 2011 L 951 2024 L 965 2024 L 965 2011 Z M 978 2011 L 978 2038 L 992 2038 L 992 2011 Z M 1005 2011 L 1005 2024 L 1019 2024 L 1019 2011 Z M 1033 2011 L 1033 2024 L 1046 2024 L 1046 2011 Z M 829 2024 L 829 2038 L 842 2038 L 842 2024 Z M 883 2024 L 883 2038 L 897 2038 L 897 2024 Z M 910 2024 L 910 2038 L 924 2038 L 924 2024 Z M 938 2024 L 938 2052 L 951 2052 L 951 2024 Z M 1019 2024 L 1019 2038 L 1033 2038 L 1033 2024 Z M 842 2038 L 842 2052 L 856 2052 L 856 2038 Z M 870 2038 L 870 2065 L 883 2065 L 883 2038 Z M 897 2038 L 897 2052 L 910 2052 L 910 2038 Z M 965 2038 L 965 2052 L 978 2052 L 978 2038 Z M 992 2038 L 992 2052 L 1005 2052 L 1005 2038 Z M 829 2052 L 829 2079 L 842 2079 L 842 2052 Z M 910 2052 L 910 2079 L 938 2079 L 938 2065 L 924 2065 L 924 2052 Z M 951 2052 L 951 2065 L 965 2065 L 965 2052 Z M 978 2052 L 978 2065 L 992 2065 L 992 2052 Z M 1005 2052 L 1005 2065 L 1019 2065 L 1019 2052 Z M 856 2065 L 856 2079 L 870 2079 L 870 2065 Z M 883 2065 L 883 2079 L 897 2079 L 897 2065 Z M 965 2065 L 965 2079 L 978 2079 L 978 2065 Z M 992 2065 L 992 2079 L 1005 2079 L 1005 2065 Z M 1019 2065 L 1019 2092 L 1033 2092 L 1033 2065 Z M 842 2079 L 842 2092 L 856 2092 L 856 2079 Z M 870 2079 L 870 2106 L 883 2106 L 883 2079 Z M 897 2079 L 897 2092 L 910 2092 L 910 2079 Z M 938 2079 L 938 2106 L 951 2106 L 951 2120 L 965 2120 L 965 2092 L 951 2092 L 951 2079 Z M 978 2079 L 978 2106 L 992 2106 L 992 2079 Z M 829 2092 L 829 2106 L 842 2106 L 842 2092 Z M 910 2092 L 910 2120 L 924 2120 L 924 2092 Z M 1005 2092 L 1005 2106 L 1019 2106 L 1019 2092 Z M 815 2106 L 815 2120 L 829 2120 L 829 2106 Z M 842 2106 L 842 2120 L 856 2120 L 856 2106 Z M 883 2106 L 883 2133 L 897 2133 L 897 2106 Z M 992 2106 L 992 2133 L 1005 2133 L 1005 2106 Z M 829 2120 L 829 2133 L 842 2133 L 842 2120 Z M 856 2120 L 856 2133 L 870 2133 L 870 2120 Z M 924 2120 L 924 2147 L 951 2147 L 951 2133 L 938 2133 L 938 2120 Z M 965 2120 L 965 2147 L 978 2147 L 978 2120 Z M 1019 2120 L 1019 2133 L 1033 2133 L 1033 2120 Z M 842 2133 L 842 2147 L 856 2147 L 856 2133 Z M 870 2133 L 870 2147 L 883 2147 L 883 2133 Z M 897 2133 L 897 2147 L 910 2147 L 910 2133 Z M 1005 2133 L 1005 2147 L 1019 2147 L 1019 2133 Z M 815 2147 L 815 2160 L 829 2160 L 829 2147 Z M 856 2147 L 856 2160 L 870 2160 L 870 2147 Z M 883 2147 L 883 2160 L 897 2160 L 897 2147 Z M 910 2147 L 910 2174 L 924 2174 L 924 2147 Z M 951 2147 L 951 2160 L 965 2160 L 965 2147 Z M 978 2147 L 978 2160 L 992 2160 L 992 2147 Z M 1019 2147 L 1019 2174 L 1033 2174 L 1033 2147 Z M 829 2160 L 829 2174 L 842 2174 L 842 2160 Z M 870 2160 L 870 2188 L 883 2188 L 883 2160 Z M 938 2160 L 938 2174 L 951 2174 L 951 2160 Z M 965 2160 L 965 2174 L 978 2174 L 978 2160 Z M 992 2160 L 992 2174 L 1005 2174 L 1005 2160 Z M 815 2174 L 815 2188 L 829 2188 L 829 2174 Z M 842 2174 L 842 2188 L 856 2188 L 856 2174 Z M 897 2174 L 897 2188 L 910 2188 L 910 2174 Z M 924 2174 L 924 2188 L 938 2188 L 938 2174 Z M 951 2174 L 951 2201 L 965 2201 L 965 2174 Z M 978 2174 L 978 2188 L 992 2188 L 992 2174 Z M 1005 2174 L 1005 2188 L 1019 2188 L 1019 2174 Z M 829 2188 L 829 2201 L 842 2201 L 842 2188 Z M 856 2188 L 856 2215 L 870 2215 L 870 2188 Z M 883 2188 L 883 2201 L 897 2201 L 897 2188 Z M 910 2188 L 910 2201 L 924 2201 L 924 2188 Z M 992 2188 L 992 2215 L 1005 2215 L 1005 2188 Z M 897 2201 L 897 2228 L 910 2228 L 910 2201 Z M 924 2201 L 924 2228 L 938 2228 L 938 2215 L 951 2215 L 951 2201 Z M 965 2201 L 965 2215 L 978 2215 L 978 2201 Z M 1019 2201 L 1019 2215 L 1033 2215 L 1033 2201 Z M 842 2215 L 842 2228 L 856 2228 L 856 2215 Z M 870 2215 L 870 2228 L 883 2228 L 883 2215 Z M 951 2215 L 951 2228 L 965 2228 L 965 2215 Z M 978 2215 L 978 2242 L 992 2242 L 992 2215 Z M 1005 2215 L 1005 2228 L 1019 2228 L 1019 2215 Z M 856 2228 L 856 2242 L 870 2242 L 870 2228 Z M 883 2228 L 883 2242 L 897 2242 L 897 2228 Z M 910 2228 L 910 2255 L 924 2255 L 924 2228 Z M 938 2228 L 938 2242 L 951 2242 L 951 2228 Z M 1019 2228 L 1019 2255 L 1033 2255 L 1033 2228 Z M 829 2242 L 829 2269 L 842 2269 L 842 2283 L 856 2283 L 856 2255 L 842 2255 L 842 2242 Z M 870 2242 L 870 2269 L 883 2269 L 883 2242 Z M 951 2242 L 951 2269 L 978 2269 L 978 2255 L 965 2255 L 965 2242 Z M 992 2242 L 992 2269 L 1005 2269 L 1005 2242 Z M 897 2255 L 897 2269 L 910 2269 L 910 2255 Z M 924 2255 L 924 2269 L 938 2269 L 938 2255 Z M 1033 2255 L 1033 2269 L 1046 2269 L 1046 2283 L 1060 2283 L 1060 2255 Z M 1073 2255 L 1073 2283 L 1087 2283 L 1087 2255 Z M 883 2269 L 883 2283 L 897 2283 L 897 2269 Z M 910 2269 L 910 2283 L 924 2283 L 924 2269 Z M 938 2269 L 938 2296 L 951 2296 L 951 2269 Z M 978 2269 L 978 2283 L 992 2283 L 992 2269 Z M 1005 2269 L 1005 2283 L 1019 2283 L 1019 2269 Z M 1101 2269 L 1101 2283 L 1114 2283 L 1114 2269 Z M 829 2283 L 829 2296 L 842 2296 L 842 2283 Z M 856 2283 L 856 2296 L 870 2296 L 870 2283 Z M 897 2283 L 897 2310 L 910 2310 L 910 2283 Z M 965 2283 L 965 2296 L 978 2296 L 978 2283 Z M 992 2283 L 992 2296 L 1005 2296 L 1005 2283 Z M 1019 2283 L 1019 2296 L 1033 2296 L 1033 2283 Z M 1060 2283 L 1060 2296 L 1073 2296 L 1073 2283 Z M 1087 2283 L 1087 2296 L 1101 2296 L 1101 2283 Z M 1114 2283 L 1114 2310 L 1128 2310 L 1128 2283 Z M 842 2296 L 842 2310 L 856 2310 L 856 2296 Z M 870 2296 L 870 2310 L 883 2310 L 883 2296 Z M 924 2296 L 924 2310 L 938 2310 L 938 2296 Z M 951 2296 L 951 2310 L 965 2310 L 965 2296 Z M 978 2296 L 978 2323 L 992 2323 L 992 2296 Z M 1005 2296 L 1005 2310 L 1019 2310 L 1019 2296 Z M 1073 2296 L 1073 2310 L 1087 2310 L 1087 2296 Z M 856 2310 L 856 2323 L 870 2323 L 870 2310 Z M 883 2310 L 883 2337 L 897 2337 L 897 2310 Z M 910 2310 L 910 2323 L 924 2323 L 924 2310 Z M 938 2310 L 938 2323 L 951 2323 L 951 2310 Z M 924 2323 L 924 2337 L 938 2337 L 938 2323 Z M 951 2323 L 951 2337 L 965 2337 L 965 2323 Z M 938 2337 L 938 2351 L 951 2351 L 951 2337 Z M 1671 149 L 1685 149 L 1685 163 L 1671 163 Z M 1413 163 L 1427 163 L 1427 177 L 1440 177 L 1440 204 L 1427 204 L 1427 177 L 1413 177 Z M 1413 217 L 1427 217 L 1427 231 L 1440 231 L 1440 245 L 1427 245 L 1427 231 L 1413 231 Z M 1413 258 L 1427 258 L 1427 272 L 1440 272 L 1440 285 L 1427 285 L 1427 272 L 1413 272 Z M 1413 299 L 1427 299 L 1427 313 L 1440 313 L 1440 326 L 1427 326 L 1427 313 L 1413 313 Z M 1413 340 L 1427 340 L 1427 353 L 1440 353 L 1440 380 L 1427 380 L 1427 353 L 1413 353 Z M 1413 394 L 1440 394 L 1440 421 L 1427 421 L 1427 408 L 1413 408 Z M 1413 734 L 1427 734 L 1427 747 L 1440 747 L 1440 774 L 1427 774 L 1427 747 L 1413 747 Z M 1413 1087 L 1427 1087 L 1427 1101 L 1440 1101 L 1440 1114 L 1427 1114 L 1427 1101 L 1413 1101 Z M 1413 1128 L 1427 1128 L 1427 1141 L 1440 1141 L 1440 1155 L 1427 1155 L 1427 1141 L 1413 1141 Z M 1413 1168 L 1427 1168 L 1427 1182 L 1440 1182 L 1440 1196 L 1427 1196 L 1427 1182 L 1413 1182 Z M 1413 1209 L 1427 1209 L 1427 1223 L 1440 1223 L 1440 1236 L 1427 1236 L 1427 1223 L 1413 1223 Z M 1413 1250 L 1427 1250 L 1427 1264 L 1440 1264 L 1440 1386 L 1427 1386 L 1427 1264 L 1413 1264 Z M 1413 1399 L 1440 1399 L 1440 1427 L 1427 1427 L 1427 1413 L 1413 1413 Z M 1413 1440 L 1440 1440 L 1440 1467 L 1427 1467 L 1427 1454 L 1413 1454 Z M 1413 1549 L 1427 1549 L 1427 1563 L 1440 1563 L 1440 1576 L 1427 1576 L 1427 1563 L 1413 1563 Z M 1712 1563 L 1726 1563 L 1726 1590 L 1712 1590 Z M 1413 1590 L 1427 1590 L 1427 1603 L 1671 1603 L 1671 1617 L 1685 1617 L 1685 1590 L 1698 1590 L 1698 1603 L 1712 1603 L 1712 1617 L 1726 1617 L 1726 1630 L 1698 1630 L 1698 1644 L 1712 1644 L 1712 1658 L 1726 1658 L 1726 1671 L 1698 1671 L 1698 1685 L 1726 1685 L 1726 1698 L 1712 1698 L 1712 1712 L 1726 1712 L 1726 1726 L 1712 1726 L 1712 1739 L 1726 1739 L 1726 1753 L 1712 1753 L 1712 1739 L 1698 1739 L 1698 1766 L 1726 1766 L 1726 1780 L 1712 1780 L 1712 1793 L 1726 1793 L 1726 1807 L 1712 1807 L 1712 1821 L 1726 1821 L 1726 1834 L 1712 1834 L 1712 1821 L 1698 1821 L 1698 1848 L 1726 1848 L 1726 1861 L 1712 1861 L 1712 1875 L 1726 1875 L 1726 1889 L 1712 1889 L 1712 1902 L 1726 1902 L 1726 1916 L 1712 1916 L 1712 1902 L 1698 1902 L 1698 1929 L 1712 1929 L 1712 1943 L 1726 1943 L 1726 1957 L 1712 1957 L 1712 1943 L 1698 1943 L 1698 1929 L 1685 1929 L 1685 1916 L 1671 1916 L 1671 1929 L 1658 1929 L 1658 1916 L 1644 1916 L 1644 1929 L 1630 1929 L 1630 1916 L 1617 1916 L 1617 1929 L 1603 1929 L 1603 1916 L 1590 1916 L 1590 1929 L 1576 1929 L 1576 1916 L 1563 1916 L 1563 1929 L 1549 1929 L 1549 1916 L 1535 1916 L 1535 1929 L 1522 1929 L 1522 1916 L 1508 1916 L 1508 1929 L 1495 1929 L 1495 1916 L 1481 1916 L 1481 1929 L 1467 1929 L 1467 1916 L 1454 1916 L 1454 1929 L 1440 1929 L 1440 1943 L 1427 1943 L 1427 1603 L 1413 1603 Z M 1440 1617 L 1440 1644 L 1467 1644 L 1467 1630 L 1454 1630 L 1454 1617 Z M 1467 1617 L 1467 1630 L 1481 1630 L 1481 1617 Z M 1495 1617 L 1495 1630 L 1508 1630 L 1508 1617 Z M 1522 1617 L 1522 1630 L 1535 1630 L 1535 1617 Z M 1549 1617 L 1549 1630 L 1563 1630 L 1563 1617 Z M 1576 1617 L 1576 1630 L 1590 1630 L 1590 1617 Z M 1603 1617 L 1603 1630 L 1617 1630 L 1617 1617 Z M 1630 1617 L 1630 1630 L 1644 1630 L 1644 1617 Z M 1658 1617 L 1658 1630 L 1671 1630 L 1671 1617 Z M 1685 1617 L 1685 1630 L 1698 1630 L 1698 1617 Z M 1481 1630 L 1481 1644 L 1495 1644 L 1495 1630 Z M 1508 1630 L 1508 1658 L 1522 1658 L 1522 1630 Z M 1535 1630 L 1535 1644 L 1549 1644 L 1549 1630 Z M 1563 1630 L 1563 1644 L 1576 1644 L 1576 1630 Z M 1590 1630 L 1590 1658 L 1603 1658 L 1603 1630 Z M 1617 1630 L 1617 1644 L 1630 1644 L 1630 1630 Z M 1644 1630 L 1644 1644 L 1658 1644 L 1658 1630 Z M 1671 1630 L 1671 1658 L 1685 1658 L 1685 1630 Z M 1467 1644 L 1467 1671 L 1481 1671 L 1481 1644 Z M 1549 1644 L 1549 1671 L 1563 1671 L 1563 1644 Z M 1630 1644 L 1630 1671 L 1644 1671 L 1644 1644 Z M 1440 1658 L 1440 1671 L 1454 1671 L 1454 1658 Z M 1495 1658 L 1495 1671 L 1508 1671 L 1508 1658 Z M 1522 1658 L 1522 1671 L 1535 1671 L 1535 1658 Z M 1576 1658 L 1576 1671 L 1590 1671 L 1590 1658 Z M 1603 1658 L 1603 1671 L 1617 1671 L 1617 1658 Z M 1658 1658 L 1658 1671 L 1671 1671 L 1671 1658 Z M 1685 1658 L 1685 1671 L 1698 1671 L 1698 1658 Z M 1454 1671 L 1454 1685 L 1467 1685 L 1467 1671 Z M 1481 1671 L 1481 1698 L 1495 1698 L 1495 1671 Z M 1508 1671 L 1508 1685 L 1522 1685 L 1522 1671 Z M 1535 1671 L 1535 1685 L 1549 1685 L 1549 1671 Z M 1563 1671 L 1563 1698 L 1576 1698 L 1576 1671 Z M 1590 1671 L 1590 1685 L 1603 1685 L 1603 1671 Z M 1617 1671 L 1617 1685 L 1630 1685 L 1630 1671 Z M 1644 1671 L 1644 1698 L 1658 1698 L 1658 1671 Z M 1671 1671 L 1671 1685 L 1685 1685 L 1685 1671 Z M 1440 1685 L 1440 1712 L 1454 1712 L 1454 1685 Z M 1522 1685 L 1522 1712 L 1535 1712 L 1535 1685 Z M 1603 1685 L 1603 1712 L 1617 1712 L 1617 1685 Z M 1685 1685 L 1685 1712 L 1698 1712 L 1698 1685 Z M 1467 1698 L 1467 1712 L 1481 1712 L 1481 1698 Z M 1495 1698 L 1495 1712 L 1508 1712 L 1508 1698 Z M 1549 1698 L 1549 1712 L 1563 1712 L 1563 1698 Z M 1576 1698 L 1576 1712 L 1590 1712 L 1590 1698 Z M 1630 1698 L 1630 1712 L 1644 1712 L 1644 1698 Z M 1658 1698 L 1658 1712 L 1671 1712 L 1671 1698 Z M 1454 1712 L 1454 1726 L 1467 1726 L 1467 1712 Z M 1481 1712 L 1481 1739 L 1495 1739 L 1495 1712 Z M 1508 1712 L 1508 1726 L 1522 1726 L 1522 1712 Z M 1535 1712 L 1535 1726 L 1549 1726 L 1549 1712 Z M 1563 1712 L 1563 1739 L 1576 1739 L 1576 1712 Z M 1590 1712 L 1590 1726 L 1603 1726 L 1603 1712 Z M 1617 1712 L 1617 1726 L 1630 1726 L 1630 1712 Z M 1644 1712 L 1644 1739 L 1658 1739 L 1658 1712 Z M 1671 1712 L 1671 1726 L 1685 1726 L 1685 1712 Z M 1698 1712 L 1698 1726 L 1712 1726 L 1712 1712 Z M 1440 1726 L 1440 1753 L 1454 1753 L 1454 1726 Z M 1522 1726 L 1522 1753 L 1535 1753 L 1535 1726 Z M 1603 1726 L 1603 1753 L 1617 1753 L 1617 1726 Z M 1685 1726 L 1685 1739 L 1698 1739 L 1698 1726 Z M 1467 1739 L 1467 1753 L 1481 1753 L 1481 1739 Z M 1495 1739 L 1495 1753 L 1508 1753 L 1508 1739 Z M 1549 1739 L 1549 1753 L 1563 1753 L 1563 1739 Z M 1576 1739 L 1576 1753 L 1590 1753 L 1590 1739 Z M 1630 1739 L 1630 1753 L 1644 1753 L 1644 1739 Z M 1658 1739 L 1658 1753 L 1671 1753 L 1671 1739 Z M 1454 1753 L 1454 1766 L 1467 1766 L 1467 1753 Z M 1481 1753 L 1481 1780 L 1495 1780 L 1495 1753 Z M 1508 1753 L 1508 1766 L 1522 1766 L 1522 1753 Z M 1535 1753 L 1535 1766 L 1549 1766 L 1549 1753 Z M 1563 1753 L 1563 1780 L 1576 1780 L 1576 1753 Z M 1590 1753 L 1590 1766 L 1603 1766 L 1603 1753 Z M 1617 1753 L 1617 1766 L 1630 1766 L 1630 1753 Z M 1644 1753 L 1644 1780 L 1658 1780 L 1658 1753 Z M 1671 1753 L 1671 1766 L 1685 1766 L 1685 1753 Z M 1440 1766 L 1440 1793 L 1454 1793 L 1454 1766 Z M 1522 1766 L 1522 1793 L 1535 1793 L 1535 1766 Z M 1603 1766 L 1603 1793 L 1617 1793 L 1617 1766 Z M 1685 1766 L 1685 1793 L 1698 1793 L 1698 1766 Z M 1467 1780 L 1467 1793 L 1481 1793 L 1481 1780 Z M 1495 1780 L 1495 1793 L 1508 1793 L 1508 1780 Z M 1549 1780 L 1549 1793 L 1563 1793 L 1563 1780 Z M 1576 1780 L 1576 1793 L 1590 1793 L 1590 1780 Z M 1630 1780 L 1630 1793 L 1644 1793 L 1644 1780 Z M 1658 1780 L 1658 1793 L 1671 1793 L 1671 1780 Z M 1454 1793 L 1454 1807 L 1467 1807 L 1467 1793 Z M 1481 1793 L 1481 1821 L 1495 1821 L 1495 1793 Z M 1508 1793 L 1508 1807 L 1522 1807 L 1522 1793 Z M 1535 1793 L 1535 1807 L 1549 1807 L 1549 1793 Z M 1563 1793 L 1563 1821 L 1576 1821 L 1576 1793 Z M 1590 1793 L 1590 1807 L 1603 1807 L 1603 1793 Z M 1617 1793 L 1617 1807 L 1630 1807 L 1630 1793 Z M 1644 1793 L 1644 1821 L 1658 1821 L 1658 1793 Z M 1671 1793 L 1671 1807 L 1685 1807 L 1685 1793 Z M 1698 1793 L 1698 1807 L 1712 1807 L 1712 1793 Z M 1440 1807 L 1440 1834 L 1454 1834 L 1454 1807 Z M 1522 1807 L 1522 1834 L 1535 1834 L 1535 1807 Z M 1603 1807 L 1603 1834 L 1617 1834 L 1617 1807 Z M 1685 1807 L 1685 1821 L 1698 1821 L 1698 1807 Z M 1467 1821 L 1467 1834 L 1481 1834 L 1481 1821 Z M 1495 1821 L 1495 1834 L 1508 1834 L 1508 1821 Z M 1549 1821 L 1549 1834 L 1563 1834 L 1563 1821 Z M 1576 1821 L 1576 1834 L 1590 1834 L 1590 1821 Z M 1630 1821 L 1630 1834 L 1644 1834 L 1644 1821 Z M 1658 1821 L 1658 1834 L 1671 1834 L 1671 1821 Z M 1454 1834 L 1454 1848 L 1467 1848 L 1467 1834 Z M 1481 1834 L 1481 1861 L 1495 1861 L 1495 1834 Z M 1508 1834 L 1508 1848 L 1522 1848 L 1522 1834 Z M 1535 1834 L 1535 1848 L 1549 1848 L 1549 1834 Z M 1563 1834 L 1563 1861 L 1576 1861 L 1576 1834 Z M 1590 1834 L 1590 1848 L 1603 1848 L 1603 1834 Z M 1617 1834 L 1617 1848 L 1630 1848 L 1630 1834 Z M 1644 1834 L 1644 1861 L 1658 1861 L 1658 1834 Z M 1671 1834 L 1671 1848 L 1685 1848 L 1685 1834 Z M 1440 1848 L 1440 1875 L 1454 1875 L 1454 1848 Z M 1522 1848 L 1522 1875 L 1535 1875 L 1535 1848 Z M 1603 1848 L 1603 1875 L 1617 1875 L 1617 1848 Z M 1685 1848 L 1685 1875 L 1698 1875 L 1698 1848 Z M 1467 1861 L 1467 1875 L 1481 1875 L 1481 1861 Z M 1495 1861 L 1495 1875 L 1508 1875 L 1508 1861 Z M 1549 1861 L 1549 1875 L 1563 1875 L 1563 1861 Z M 1576 1861 L 1576 1875 L 1590 1875 L 1590 1861 Z M 1630 1861 L 1630 1875 L 1644 1875 L 1644 1861 Z M 1658 1861 L 1658 1875 L 1671 1875 L 1671 1861 Z M 1454 1875 L 1454 1889 L 1467 1889 L 1467 1875 Z M 1481 1875 L 1481 1902 L 1495 1902 L 1495 1875 Z M 1508 1875 L 1508 1889 L 1522 1889 L 1522 1875 Z M 1535 1875 L 1535 1889 L 1549 1889 L 1549 1875 Z M 1563 1875 L 1563 1902 L 1576 1902 L 1576 1875 Z M 1590 1875 L 1590 1889 L 1603 1889 L 1603 1875 Z M 1617 1875 L 1617 1889 L 1630 1889 L 1630 1875 Z M 1644 1875 L 1644 1902 L 1658 1902 L 1658 1875 Z M 1671 1875 L 1671 1889 L 1685 1889 L 1685 1875 Z M 1698 1875 L 1698 1889 L 1712 1889 L 1712 1875 Z M 1440 1889 L 1440 1916 L 1454 1916 L 1454 1889 Z M 1522 1889 L 1522 1916 L 1535 1916 L 1535 1889 Z M 1603 1889 L 1603 1916 L 1617 1916 L 1617 1889 Z M 1685 1889 L 1685 1902 L 1698 1902 L 1698 1889 Z M 1467 1902 L 1467 1916 L 1481 1916 L 1481 1902 Z M 1495 1902 L 1495 1916 L 1508 1916 L 1508 1902 Z M 1549 1902 L 1549 1916 L 1563 1916 L 1563 1902 Z M 1576 1902 L 1576 1916 L 1590 1916 L 1590 1902 Z M 1630 1902 L 1630 1916 L 1644 1916 L 1644 1902 Z M 1658 1902 L 1658 1916 L 1671 1916 L 1671 1902 Z M 1413 1957 L 1427 1957 L 1427 1970 L 1440 1970 L 1440 1984 L 1427 1984 L 1427 1970 L 1413 1970 Z M 1698 1970 L 1712 1970 L 1712 1984 L 1726 1984 L 1726 1997 L 1698 1997 L 1698 2011 L 1726 2011 L 1726 2024 L 1712 2024 L 1712 2038 L 1726 2038 L 1726 2052 L 1712 2052 L 1712 2079 L 1726 2079 L 1726 2092 L 1712 2092 L 1712 2079 L 1698 2079 L 1698 2106 L 1726 2106 L 1726 2120 L 1698 2120 L 1698 2133 L 1712 2133 L 1712 2147 L 1726 2147 L 1726 2160 L 1698 2160 L 1698 2174 L 1726 2174 L 1726 2188 L 1712 2188 L 1712 2201 L 1726 2201 L 1726 2215 L 1712 2215 L 1712 2201 L 1698 2201 L 1698 2228 L 1726 2228 L 1726 2242 L 1698 2242 L 1698 2255 L 1726 2255 L 1726 2269 L 1712 2269 L 1712 2283 L 1726 2283 L 1726 2296 L 1712 2296 L 1712 2323 L 1726 2323 L 1726 2337 L 1712 2337 L 1712 2323 L 1698 2323 L 1698 2351 L 1726 2351 L 1726 2364 L 1698 2364 L 1698 2378 L 1685 2378 L 1685 2364 L 1671 2364 L 1671 2378 L 1658 2378 L 1658 2364 L 1644 2364 L 1644 2378 L 1630 2378 L 1630 2364 L 1617 2364 L 1617 2378 L 1603 2378 L 1603 2364 L 1590 2364 L 1590 2378 L 1576 2378 L 1576 2364 L 1563 2364 L 1563 2378 L 1549 2378 L 1549 2364 L 1535 2364 L 1535 2378 L 1508 2378 L 1508 2351 L 1495 2351 L 1495 2378 L 1467 2378 L 1467 2364 L 1454 2364 L 1454 2378 L 1440 2378 L 1440 2391 L 1427 2391 L 1427 2133 L 1413 2133 L 1413 2120 L 1427 2120 L 1427 2133 L 1440 2133 L 1440 2364 L 1454 2364 L 1454 2351 L 1467 2351 L 1467 2147 L 1481 2147 L 1481 2133 L 1495 2133 L 1495 2011 L 1549 2011 L 1549 2024 L 1563 2024 L 1563 2038 L 1576 2038 L 1576 2011 L 1563 2011 L 1563 1997 L 1671 1997 L 1671 1984 L 1685 1984 L 1685 1997 L 1698 1997 Z M 1671 1997 L 1671 2011 L 1685 2011 L 1685 1997 Z M 1590 2011 L 1590 2038 L 1617 2038 L 1617 2024 L 1603 2024 L 1603 2011 Z M 1617 2011 L 1617 2024 L 1630 2024 L 1630 2011 Z M 1644 2011 L 1644 2024 L 1658 2024 L 1658 2011 Z M 1685 2011 L 1685 2038 L 1698 2038 L 1698 2011 Z M 1508 2024 L 1508 2052 L 1522 2052 L 1522 2065 L 1535 2065 L 1535 2038 L 1522 2038 L 1522 2024 Z M 1630 2024 L 1630 2038 L 1644 2038 L 1644 2024 Z M 1658 2024 L 1658 2038 L 1671 2038 L 1671 2024 Z M 1549 2038 L 1549 2065 L 1563 2065 L 1563 2079 L 1576 2079 L 1576 2052 L 1563 2052 L 1563 2038 Z M 1617 2038 L 1617 2052 L 1630 2052 L 1630 2038 Z M 1644 2038 L 1644 2052 L 1658 2052 L 1658 2038 Z M 1671 2038 L 1671 2065 L 1685 2065 L 1685 2038 Z M 1698 2038 L 1698 2052 L 1712 2052 L 1712 2038 Z M 1590 2052 L 1590 2079 L 1603 2079 L 1603 2092 L 1617 2092 L 1617 2065 L 1603 2065 L 1603 2052 Z M 1630 2052 L 1630 2079 L 1644 2079 L 1644 2052 Z M 1508 2065 L 1508 2092 L 1522 2092 L 1522 2106 L 1535 2106 L 1535 2079 L 1522 2079 L 1522 2065 Z M 1658 2065 L 1658 2079 L 1671 2079 L 1671 2065 Z M 1685 2065 L 1685 2079 L 1698 2079 L 1698 2065 Z M 1549 2079 L 1549 2106 L 1563 2106 L 1563 2120 L 1576 2120 L 1576 2092 L 1563 2092 L 1563 2079 Z M 1644 2079 L 1644 2092 L 1658 2092 L 1658 2079 Z M 1671 2079 L 1671 2092 L 1685 2092 L 1685 2079 Z M 1590 2092 L 1590 2106 L 1603 2106 L 1603 2092 Z M 1617 2092 L 1617 2106 L 1630 2106 L 1630 2092 Z M 1658 2092 L 1658 2120 L 1671 2120 L 1671 2092 Z M 1508 2106 L 1508 2133 L 1522 2133 L 1522 2147 L 1535 2147 L 1535 2120 L 1522 2120 L 1522 2106 Z M 1603 2106 L 1603 2120 L 1617 2120 L 1617 2106 Z M 1630 2106 L 1630 2120 L 1644 2120 L 1644 2106 Z M 1685 2106 L 1685 2120 L 1698 2120 L 1698 2106 Z M 1549 2120 L 1549 2133 L 1563 2133 L 1563 2120 Z M 1576 2120 L 1576 2133 L 1590 2133 L 1590 2120 Z M 1617 2120 L 1617 2133 L 1630 2133 L 1630 2120 Z M 1644 2120 L 1644 2133 L 1658 2133 L 1658 2120 Z M 1671 2120 L 1671 2147 L 1685 2147 L 1685 2120 Z M 1563 2133 L 1563 2147 L 1576 2147 L 1576 2133 Z M 1590 2133 L 1590 2147 L 1603 2147 L 1603 2133 Z M 1630 2133 L 1630 2160 L 1644 2160 L 1644 2133 Z M 1481 2147 L 1481 2160 L 1495 2160 L 1495 2174 L 1508 2174 L 1508 2147 Z M 1535 2147 L 1535 2160 L 1549 2160 L 1549 2147 Z M 1576 2147 L 1576 2160 L 1590 2160 L 1590 2147 Z M 1603 2147 L 1603 2160 L 1617 2160 L 1617 2147 Z M 1658 2147 L 1658 2160 L 1671 2160 L 1671 2147 Z M 1685 2147 L 1685 2160 L 1698 2160 L 1698 2147 Z M 1522 2160 L 1522 2174 L 1535 2174 L 1535 2160 Z M 1549 2160 L 1549 2174 L 1563 2174 L 1563 2160 Z M 1590 2160 L 1590 2174 L 1603 2174 L 1603 2160 Z M 1617 2160 L 1617 2174 L 1630 2174 L 1630 2160 Z M 1644 2160 L 1644 2188 L 1658 2188 L 1658 2160 Z M 1671 2160 L 1671 2174 L 1685 2174 L 1685 2160 Z M 1481 2174 L 1481 2188 L 1495 2188 L 1495 2174 Z M 1508 2174 L 1508 2188 L 1522 2188 L 1522 2174 Z M 1535 2174 L 1535 2201 L 1549 2201 L 1549 2174 Z M 1563 2174 L 1563 2201 L 1590 2201 L 1590 2188 L 1576 2188 L 1576 2174 Z M 1603 2174 L 1603 2201 L 1617 2201 L 1617 2174 Z M 1685 2174 L 1685 2201 L 1698 2201 L 1698 2174 Z M 1495 2188 L 1495 2201 L 1508 2201 L 1508 2188 Z M 1630 2188 L 1630 2201 L 1644 2201 L 1644 2188 Z M 1658 2188 L 1658 2201 L 1671 2201 L 1671 2188 Z M 1481 2201 L 1481 2215 L 1495 2215 L 1495 2201 Z M 1508 2201 L 1508 2215 L 1522 2215 L 1522 2201 Z M 1549 2201 L 1549 2228 L 1563 2228 L 1563 2201 Z M 1590 2201 L 1590 2215 L 1603 2215 L 1603 2201 Z M 1617 2201 L 1617 2228 L 1630 2228 L 1630 2201 Z M 1644 2201 L 1644 2215 L 1658 2215 L 1658 2201 Z M 1671 2201 L 1671 2215 L 1685 2215 L 1685 2201 Z M 1495 2215 L 1495 2228 L 1508 2228 L 1508 2215 Z M 1522 2215 L 1522 2228 L 1535 2228 L 1535 2215 Z M 1576 2215 L 1576 2228 L 1590 2228 L 1590 2215 Z M 1658 2215 L 1658 2242 L 1671 2242 L 1671 2215 Z M 1481 2228 L 1481 2242 L 1495 2242 L 1495 2228 Z M 1508 2228 L 1508 2242 L 1522 2242 L 1522 2228 Z M 1535 2228 L 1535 2255 L 1549 2255 L 1549 2228 Z M 1563 2228 L 1563 2242 L 1576 2242 L 1576 2228 Z M 1590 2228 L 1590 2242 L 1603 2242 L 1603 2228 Z M 1630 2228 L 1630 2255 L 1644 2255 L 1644 2228 Z M 1685 2228 L 1685 2242 L 1698 2242 L 1698 2228 Z M 1495 2242 L 1495 2255 L 1508 2255 L 1508 2242 Z M 1576 2242 L 1576 2255 L 1590 2255 L 1590 2242 Z M 1603 2242 L 1603 2255 L 1617 2255 L 1617 2242 Z M 1671 2242 L 1671 2255 L 1685 2255 L 1685 2242 Z M 1481 2255 L 1481 2269 L 1495 2269 L 1495 2255 Z M 1508 2255 L 1508 2269 L 1522 2269 L 1522 2255 Z M 1549 2255 L 1549 2283 L 1576 2283 L 1576 2269 L 1563 2269 L 1563 2255 Z M 1590 2255 L 1590 2269 L 1603 2269 L 1603 2255 Z M 1617 2255 L 1617 2269 L 1630 2269 L 1630 2255 Z M 1644 2255 L 1644 2269 L 1658 2269 L 1658 2255 Z M 1685 2255 L 1685 2283 L 1698 2283 L 1698 2255 Z M 1495 2269 L 1495 2283 L 1508 2283 L 1508 2269 Z M 1522 2269 L 1522 2283 L 1535 2283 L 1535 2269 Z M 1603 2269 L 1603 2283 L 1617 2283 L 1617 2269 Z M 1630 2269 L 1630 2283 L 1644 2283 L 1644 2269 Z M 1658 2269 L 1658 2283 L 1671 2283 L 1671 2269 Z M 1481 2283 L 1481 2296 L 1495 2296 L 1495 2283 Z M 1508 2283 L 1508 2296 L 1522 2296 L 1522 2283 Z M 1535 2283 L 1535 2310 L 1549 2310 L 1549 2283 Z M 1576 2283 L 1576 2296 L 1590 2296 L 1590 2283 Z M 1617 2283 L 1617 2296 L 1630 2296 L 1630 2283 Z M 1644 2283 L 1644 2296 L 1658 2296 L 1658 2283 Z M 1671 2283 L 1671 2310 L 1685 2310 L 1685 2283 Z M 1698 2283 L 1698 2296 L 1712 2296 L 1712 2283 Z M 1495 2296 L 1495 2310 L 1508 2310 L 1508 2296 Z M 1563 2296 L 1563 2310 L 1576 2310 L 1576 2296 Z M 1590 2296 L 1590 2310 L 1603 2310 L 1603 2296 Z M 1630 2296 L 1630 2323 L 1644 2323 L 1644 2296 Z M 1481 2310 L 1481 2323 L 1495 2323 L 1495 2310 Z M 1508 2310 L 1508 2323 L 1522 2323 L 1522 2310 Z M 1549 2310 L 1549 2323 L 1563 2323 L 1563 2310 Z M 1576 2310 L 1576 2323 L 1590 2323 L 1590 2310 Z M 1603 2310 L 1603 2323 L 1617 2323 L 1617 2310 Z M 1658 2310 L 1658 2323 L 1671 2323 L 1671 2310 Z M 1685 2310 L 1685 2323 L 1698 2323 L 1698 2310 Z M 1495 2323 L 1495 2337 L 1508 2337 L 1508 2323 Z M 1522 2323 L 1522 2337 L 1535 2337 L 1535 2323 Z M 1563 2323 L 1563 2337 L 1576 2337 L 1576 2323 Z M 1590 2323 L 1590 2337 L 1603 2337 L 1603 2323 Z M 1617 2323 L 1617 2351 L 1630 2351 L 1630 2323 Z M 1644 2323 L 1644 2337 L 1658 2337 L 1658 2323 Z M 1671 2323 L 1671 2337 L 1685 2337 L 1685 2323 Z M 1481 2337 L 1481 2351 L 1495 2351 L 1495 2337 Z M 1508 2337 L 1508 2351 L 1522 2351 L 1522 2337 Z M 1535 2337 L 1535 2351 L 1549 2351 L 1549 2337 Z M 1576 2337 L 1576 2364 L 1590 2364 L 1590 2337 Z M 1658 2337 L 1658 2364 L 1671 2364 L 1671 2337 Z M 1467 2351 L 1467 2364 L 1481 2364 L 1481 2351 Z M 1522 2351 L 1522 2364 L 1535 2364 L 1535 2351 Z M 1549 2351 L 1549 2364 L 1563 2364 L 1563 2351 Z M 1603 2351 L 1603 2364 L 1617 2364 L 1617 2351 Z M 1630 2351 L 1630 2364 L 1644 2364 L 1644 2351 Z M 1685 2351 L 1685 2364 L 1698 2364 L 1698 2351 Z M 1413 1997 L 1427 1997 L 1427 2011 L 1440 2011 L 1440 2024 L 1427 2024 L 1427 2011 L 1413 2011 Z M 1413 2038 L 1427 2038 L 1427 2052 L 1440 2052 L 1440 2065 L 1427 2065 L 1427 2052 L 1413 2052 Z M 1413 2079 L 1427 2079 L 1427 2092 L 1440 2092 L 1440 2106 L 1427 2106 L 1427 2092 L 1413 2092 Z M 1712 2378 L 1726 2378 L 1726 2405 L 1712 2405 Z" /></svg>